Apfel Grotezk-Fett.ufo
<glyph name="exclam" format="2">
  <advance width="236"/>
  <unicode hex="0021"/>
  <outline>
    <contour>
      <point x="66" y="224" type="line"/>
      <point x="174" y="224" type="line"/>
      <point x="194" y="680" type="line"/>
      <point x="46" y="680" type="line"/>
    </contour>
    <component base="period"/>
  </outline>
</glyph>
<glyph name="numbersign" format="2">
  <advance width="612"/>
  <unicode hex="0023"/>
  <outline>
    <contour>
      <point x="109" y="-32" type="line"/>
      <point x="253" y="-32" type="line"/>
      <point x="253" y="618" type="line"/>
      <point x="109" y="618" type="line"/>
    </contour>
    <contour>
      <point x="359" y="-32" type="line"/>
      <point x="503" y="-32" type="line"/>
      <point x="503" y="618" type="line"/>
      <point x="359" y="618" type="line"/>
    </contour>
    <contour>
      <point x="36" y="112" type="line"/>
      <point x="576" y="112" type="line"/>
      <point x="576" y="230" type="line"/>
      <point x="36" y="230" type="line"/>
    </contour>
    <contour>
      <point x="36" y="364" type="line"/>
      <point x="576" y="364" type="line"/>
      <point x="576" y="480" type="line"/>
      <point x="36" y="480" type="line"/>
    </contour>
  </outline>
</glyph>
<glyph name="ampersand" format="2">
  <advance width="648"/>
  <unicode hex="0026"/>
  <outline>
    <contour>
      <point x="292" y="-12" type="curve" smooth="yes"/>
      <point x="438" y="-12"/>
      <point x="544" y="70"/>
      <point x="544" y="184" type="curve" smooth="yes"/>
      <point x="544" y="308" type="line"/>
      <point x="624" y="308" type="line"/>
      <point x="624" y="384" type="line"/>
      <point x="544" y="384" type="line"/>
      <point x="544" y="504" type="line"/>
      <point x="402" y="480" type="line"/>
      <point x="402" y="446" type="line" smooth="yes"/>
      <point x="402" y="410"/>
      <point x="379" y="384"/>
      <point x="348" y="384" type="curve" smooth="yes"/>
      <point x="292" y="384" type="line" smooth="yes"/>
      <point x="246" y="384"/>
      <point x="212" y="416"/>
      <point x="212" y="460" type="curve" smooth="yes"/>
      <point x="212" y="504"/>
      <point x="249" y="536"/>
      <point x="300" y="536" type="curve" smooth="yes"/>
      <point x="316" y="536"/>
      <point x="335" y="533"/>
      <point x="352" y="526" type="curve"/>
      <point x="392" y="644" type="line"/>
      <point x="361" y="656"/>
      <point x="332" y="662"/>
      <point x="296" y="662" type="curve" smooth="yes"/>
      <point x="166" y="662"/>
      <point x="72" y="586"/>
      <point x="72" y="480" type="curve" smooth="yes"/>
      <point x="72" y="418"/>
      <point x="106" y="374"/>
      <point x="164" y="344" type="curve"/>
      <point x="86" y="316"/>
      <point x="40" y="256"/>
      <point x="40" y="184" type="curve" smooth="yes"/>
      <point x="40" y="70"/>
      <point x="146" y="-12"/>
    </contour>
    <contour>
      <point x="294" y="128" type="curve" smooth="yes"/>
      <point x="235" y="128"/>
      <point x="192" y="166"/>
      <point x="192" y="218" type="curve" smooth="yes"/>
      <point x="192" y="270"/>
      <point x="234" y="308"/>
      <point x="292" y="308" type="curve" smooth="yes"/>
      <point x="396" y="308" type="line"/>
      <point x="396" y="220" type="line" smooth="yes"/>
      <point x="396" y="167"/>
      <point x="353" y="128"/>
    </contour>
  </outline>
</glyph>
<glyph name="parenleft" format="2">
  <advance width="324"/>
  <unicode hex="0028"/>
  <outline>
    <contour>
      <point x="158" y="-220" type="curve"/>
      <point x="294" y="-160" type="line"/>
      <point x="211" y="-33"/>
      <point x="172" y="98"/>
      <point x="172" y="244" type="curve" smooth="yes"/>
      <point x="172" y="392"/>
      <point x="211" y="523"/>
      <point x="292" y="648" type="curve"/>
      <point x="156" y="708" type="line"/>
      <point x="77" y="568"/>
      <point x="40" y="419"/>
      <point x="40" y="246" type="curve" smooth="yes"/>
      <point x="40" y="72"/>
      <point x="78" y="-78"/>
    </contour>
  </outline>
</glyph>
<glyph name="asterisk" format="2">
  <advance width="372"/>
  <unicode hex="002A"/>
  <outline>
    <contour>
      <point x="128" y="368" type="line"/>
      <point x="244" y="368" type="line"/>
      <point x="220" y="466" type="line"/>
      <point x="292" y="396" type="line"/>
      <point x="348" y="496" type="line"/>
      <point x="251" y="524" type="line"/>
      <point x="348" y="552" type="line"/>
      <point x="292" y="652" type="line"/>
      <point x="220" y="582" type="line"/>
      <point x="244" y="680" type="line"/>
      <point x="128" y="680" type="line"/>
      <point x="152" y="582" type="line"/>
      <point x="80" y="652" type="line"/>
      <point x="24" y="552" type="line"/>
      <point x="121" y="524" type="line"/>
      <point x="24" y="496" type="line"/>
      <point x="80" y="396" type="line"/>
      <point x="152" y="466" type="line"/>
    </contour>
  </outline>
</glyph>
<glyph name="comma" format="2">
  <advance width="248"/>
  <unicode hex="002C"/>
  <outline>
    <contour>
      <point x="117" y="-112"/>
      <point x="208" y="-64"/>
      <point x="208" y="48" type="curve" smooth="yes"/>
      <point x="208" y="118"/>
      <point x="171" y="168"/>
      <point x="115" y="168" type="curve" smooth="yes"/>
      <point x="67" y="168"/>
      <point x="32" y="132"/>
      <point x="32" y="82" type="curve" smooth="yes"/>
      <point x="32" y="33"/>
      <point x="66" y="-2"/>
      <point x="114" y="-2" type="curve"/>
      <point x="96" y="-27"/>
      <point x="59" y="-28"/>
      <point x="36" y="-22" type="curve"/>
      <point x="32" y="-95" type="line"/>
    </contour>
  </outline>
</glyph>
<glyph name="hyphen" format="2">
  <advance width="404"/>
  <unicode hex="002D"/>
  <outline>
    <contour>
      <point x="20" y="200" type="line"/>
      <point x="384" y="200" type="line"/>
      <point x="384" y="312" type="line"/>
      <point x="20" y="312" type="line"/>
    </contour>
  </outline>
</glyph>
<glyph name="period" format="2">
  <advance width="244"/>
  <unicode hex="002E"/>
  <outline>
    <contour>
      <point x="118" y="-8" type="curve" smooth="yes"/>
      <point x="168" y="-8"/>
      <point x="204" y="29"/>
      <point x="204" y="80" type="curve" smooth="yes"/>
      <point x="204" y="131"/>
      <point x="168" y="168"/>
      <point x="118" y="168" type="curve" smooth="yes"/>
      <point x="68" y="168"/>
      <point x="32" y="131"/>
      <point x="32" y="80" type="curve" smooth="yes"/>
      <point x="32" y="29"/>
      <point x="68" y="-8"/>
    </contour>
  </outline>
</glyph>
<glyph name="slash" format="2">
  <advance width="308"/>
  <unicode hex="002F"/>
  <outline>
    <contour>
      <point x="128" y="-212" type="line"/>
      <point x="308" y="664" type="line"/>
      <point x="170" y="692" type="line"/>
      <point x="-12" y="-180" type="line"/>
    </contour>
  </outline>
</glyph>
<glyph name="zero" format="2">
  <advance width="628"/>
  <unicode hex="0030"/>
  <outline>
    <contour>
      <point x="314" y="-12" type="curve" smooth="yes"/>
      <point x="478" y="-12"/>
      <point x="596" y="129"/>
      <point x="596" y="325" type="curve" smooth="yes"/>
      <point x="596" y="521"/>
      <point x="478" y="662"/>
      <point x="314" y="662" type="curve" smooth="yes"/>
      <point x="150" y="662"/>
      <point x="32" y="521"/>
      <point x="32" y="325" type="curve" smooth="yes"/>
      <point x="32" y="129"/>
      <point x="150" y="-12"/>
    </contour>
    <contour>
      <point x="314" y="132" type="curve" smooth="yes"/>
      <point x="238" y="132"/>
      <point x="188" y="209"/>
      <point x="188" y="327" type="curve" smooth="yes"/>
      <point x="188" y="445"/>
      <point x="238" y="522"/>
      <point x="314" y="522" type="curve" smooth="yes"/>
      <point x="390" y="522"/>
      <point x="440" y="445"/>
      <point x="440" y="327" type="curve" smooth="yes"/>
      <point x="440" y="209"/>
      <point x="390" y="132"/>
    </contour>
  </outline>
</glyph>
<glyph name="one" format="2">
  <advance width="336"/>
  <unicode hex="0031"/>
  <outline>
    <contour>
      <point x="138" y="0" type="line"/>
      <point x="286" y="0" type="line"/>
      <point x="286" y="650" type="line"/>
      <point x="142" y="650" type="line"/>
      <point x="142" y="604" type="line" smooth="yes"/>
      <point x="142" y="551"/>
      <point x="107" y="516"/>
      <point x="54" y="516" type="curve" smooth="yes"/>
      <point x="14" y="516" type="line"/>
      <point x="14" y="380" type="line"/>
      <point x="138" y="380" type="line"/>
    </contour>
  </outline>
</glyph>
<glyph name="two" format="2">
  <advance width="512"/>
  <unicode hex="0032"/>
  <outline>
    <contour>
      <point x="24" y="0" type="line"/>
      <point x="476" y="0" type="line"/>
      <point x="476" y="144" type="line"/>
      <point x="192" y="144" type="line"/>
      <point x="212" y="196"/>
      <point x="264" y="236"/>
      <point x="328" y="268" type="curve" smooth="yes"/>
      <point x="404" y="306"/>
      <point x="480" y="368"/>
      <point x="480" y="468" type="curve" smooth="yes"/>
      <point x="480" y="581"/>
      <point x="388" y="662"/>
      <point x="260" y="662" type="curve" smooth="yes"/>
      <point x="124" y="662"/>
      <point x="28" y="572"/>
      <point x="24" y="448" type="curve"/>
      <point x="176" y="436" type="line"/>
      <point x="176" y="486"/>
      <point x="210" y="526"/>
      <point x="256" y="526" type="curve" smooth="yes"/>
      <point x="298" y="526"/>
      <point x="328" y="492"/>
      <point x="328" y="444" type="curve" smooth="yes"/>
      <point x="328" y="396"/>
      <point x="296" y="354"/>
      <point x="232" y="322" type="curve" smooth="yes"/>
      <point x="88" y="250"/>
      <point x="24" y="168"/>
      <point x="24" y="32" type="curve" smooth="yes"/>
    </contour>
  </outline>
</glyph>
<glyph name="three" format="2">
  <advance width="560"/>
  <unicode hex="0033"/>
  <outline>
    <contour>
      <point x="280" y="-12" type="curve" smooth="yes"/>
      <point x="425" y="-12"/>
      <point x="528" y="78"/>
      <point x="528" y="204" type="curve" smooth="yes"/>
      <point x="528" y="316"/>
      <point x="450" y="396"/>
      <point x="340" y="396" type="curve"/>
      <point x="344" y="380" type="line"/>
      <point x="504" y="496" type="line"/>
      <point x="504" y="650" type="line"/>
      <point x="64" y="650" type="line"/>
      <point x="64" y="510" type="line"/>
      <point x="372" y="510" type="line"/>
      <point x="208" y="392" type="line"/>
      <point x="256" y="328" type="line"/>
      <point x="320" y="344"/>
      <point x="376" y="300"/>
      <point x="376" y="230" type="curve" smooth="yes"/>
      <point x="376" y="171"/>
      <point x="336" y="128"/>
      <point x="280" y="128" type="curve" smooth="yes"/>
      <point x="222" y="128"/>
      <point x="182" y="172"/>
      <point x="186" y="232" type="curve"/>
      <point x="32" y="208" type="line"/>
      <point x="32" y="80"/>
      <point x="135" y="-12"/>
    </contour>
  </outline>
</glyph>
<glyph name="four" format="2">
  <advance width="552"/>
  <unicode hex="0034"/>
  <outline>
    <contour>
      <point x="20" y="128" type="line"/>
      <point x="544" y="128" type="line"/>
      <point x="544" y="260" type="line"/>
      <point x="140" y="260" type="line"/>
      <point x="242" y="332"/>
      <point x="290" y="451"/>
      <point x="290" y="628" type="curve" smooth="yes"/>
      <point x="290" y="650" type="line"/>
      <point x="134" y="650" type="line"/>
      <point x="134" y="608" type="line" smooth="yes"/>
      <point x="134" y="463"/>
      <point x="95" y="347"/>
      <point x="20" y="272" type="curve"/>
    </contour>
    <contour>
      <point x="326" y="0" type="line"/>
      <point x="468" y="0" type="line"/>
      <point x="468" y="516" type="line"/>
      <point x="326" y="484" type="line"/>
    </contour>
  </outline>
</glyph>
<glyph name="five" format="2">
  <advance width="568"/>
  <unicode hex="0035"/>
  <note>
alto
</note>
  <outline>
    <contour>
      <point x="292" y="-12" type="curve" smooth="yes"/>
      <point x="437" y="-12"/>
      <point x="540" y="83"/>
      <point x="540" y="216" type="curve" smooth="yes"/>
      <point x="540" y="344"/>
      <point x="447" y="436"/>
      <point x="316" y="436" type="curve" smooth="yes"/>
      <point x="252" y="436"/>
      <point x="187" y="411"/>
      <point x="160" y="376" type="curve"/>
      <point x="180" y="368" type="line"/>
      <point x="188" y="512" type="line"/>
      <point x="504" y="512" type="line"/>
      <point x="504" y="650" type="line"/>
      <point x="96" y="650" type="line"/>
      <point x="68" y="332" type="line"/>
      <point x="200" y="300" type="line"/>
      <point x="210" y="330"/>
      <point x="246" y="352"/>
      <point x="286" y="352" type="curve" smooth="yes"/>
      <point x="342" y="352"/>
      <point x="382" y="305"/>
      <point x="382" y="240" type="curve" smooth="yes"/>
      <point x="382" y="175"/>
      <point x="342" y="128"/>
      <point x="286" y="128" type="curve" smooth="yes"/>
      <point x="230" y="128"/>
      <point x="192" y="171"/>
      <point x="196" y="232" type="curve"/>
      <point x="36" y="216" type="line"/>
      <point x="36" y="83"/>
      <point x="143" y="-12"/>
    </contour>
  </outline>
</glyph>
<glyph name="six" format="2">
  <advance width="576"/>
  <unicode hex="0036"/>
  <outline>
    <contour>
      <point x="308" y="-12" type="curve" smooth="yes"/>
      <point x="446" y="-12"/>
      <point x="544" y="79"/>
      <point x="544" y="208" type="curve" smooth="yes"/>
      <point x="544" y="335"/>
      <point x="455" y="424"/>
      <point x="328" y="424" type="curve" smooth="yes"/>
      <point x="260" y="424"/>
      <point x="196" y="399"/>
      <point x="164" y="351" type="curve"/>
      <point x="172" y="348" type="line"/>
      <point x="172" y="451"/>
      <point x="225" y="536"/>
      <point x="300" y="536" type="curve" smooth="yes"/>
      <point x="344" y="536"/>
      <point x="384" y="512"/>
      <point x="396" y="468" type="curve"/>
      <point x="536" y="500" type="line"/>
      <point x="524" y="595"/>
      <point x="436" y="662"/>
      <point x="324" y="662" type="curve" smooth="yes"/>
      <point x="155" y="662"/>
      <point x="36" y="517"/>
      <point x="36" y="312" type="curve" smooth="yes"/>
      <point x="36" y="120"/>
      <point x="144" y="-12"/>
    </contour>
    <contour>
      <point x="296" y="128" type="curve" smooth="yes"/>
      <point x="240" y="128"/>
      <point x="200" y="173"/>
      <point x="200" y="236" type="curve" smooth="yes"/>
      <point x="200" y="299"/>
      <point x="240" y="344"/>
      <point x="296" y="344" type="curve" smooth="yes"/>
      <point x="352" y="344"/>
      <point x="392" y="299"/>
      <point x="392" y="236" type="curve" smooth="yes"/>
      <point x="392" y="173"/>
      <point x="352" y="128"/>
    </contour>
  </outline>
</glyph>
<glyph name="seven" format="2">
  <advance width="484"/>
  <unicode hex="0037"/>
  <outline>
    <contour>
      <point x="100" y="0" type="curve"/>
      <point x="272" y="0" type="line"/>
      <point x="272" y="12" type="line" smooth="yes"/>
      <point x="272" y="219"/>
      <point x="339" y="379"/>
      <point x="480" y="504" type="curve"/>
      <point x="480" y="650" type="line"/>
      <point x="12" y="650" type="line"/>
      <point x="12" y="512" type="line"/>
      <point x="372" y="512" type="line"/>
      <point x="182" y="381"/>
      <point x="100" y="215"/>
    </contour>
  </outline>
</glyph>
<glyph name="eight" format="2">
  <advance width="584"/>
  <unicode hex="0038"/>
  <outline>
    <contour>
      <point x="292" y="-12" type="curve" smooth="yes"/>
      <point x="438" y="-12"/>
      <point x="544" y="70"/>
      <point x="544" y="184" type="curve" smooth="yes"/>
      <point x="544" y="256"/>
      <point x="498" y="316"/>
      <point x="420" y="344" type="curve"/>
      <point x="478" y="374"/>
      <point x="516" y="418"/>
      <point x="516" y="480" type="curve" smooth="yes"/>
      <point x="516" y="583"/>
      <point x="420" y="662"/>
      <point x="292" y="662" type="curve" smooth="yes"/>
      <point x="164" y="662"/>
      <point x="68" y="583"/>
      <point x="68" y="480" type="curve" smooth="yes"/>
      <point x="68" y="418"/>
      <point x="106" y="374"/>
      <point x="164" y="344" type="curve"/>
      <point x="86" y="316"/>
      <point x="40" y="256"/>
      <point x="40" y="184" type="curve" smooth="yes"/>
      <point x="40" y="70"/>
      <point x="146" y="-12"/>
    </contour>
    <contour>
      <point x="292" y="120" type="curve" smooth="yes"/>
      <point x="231" y="120"/>
      <point x="192" y="156"/>
      <point x="192" y="212" type="curve" smooth="yes"/>
      <point x="192" y="268"/>
      <point x="231" y="304"/>
      <point x="292" y="304" type="curve" smooth="yes"/>
      <point x="353" y="304"/>
      <point x="392" y="268"/>
      <point x="392" y="212" type="curve" smooth="yes"/>
      <point x="392" y="156"/>
      <point x="353" y="120"/>
    </contour>
    <contour>
      <point x="292" y="388" type="curve" smooth="yes"/>
      <point x="243" y="388"/>
      <point x="212" y="417"/>
      <point x="212" y="462" type="curve" smooth="yes"/>
      <point x="212" y="507"/>
      <point x="243" y="536"/>
      <point x="292" y="536" type="curve" smooth="yes"/>
      <point x="341" y="536"/>
      <point x="372" y="507"/>
      <point x="372" y="462" type="curve" smooth="yes"/>
      <point x="372" y="417"/>
      <point x="341" y="388"/>
    </contour>
  </outline>
</glyph>
<glyph name="nine" format="2">
  <advance width="560"/>
  <unicode hex="0039"/>
  <outline>
    <contour>
      <point x="248" y="-12" type="curve" smooth="yes"/>
      <point x="412" y="-12"/>
      <point x="524" y="136"/>
      <point x="524" y="336" type="curve" smooth="yes"/>
      <point x="524" y="528"/>
      <point x="420" y="662"/>
      <point x="264" y="662" type="curve" smooth="yes"/>
      <point x="132" y="662"/>
      <point x="36" y="573"/>
      <point x="36" y="448" type="curve" smooth="yes"/>
      <point x="36" y="324"/>
      <point x="126" y="236"/>
      <point x="252" y="236" type="curve" smooth="yes"/>
      <point x="318" y="236"/>
      <point x="374" y="261"/>
      <point x="407" y="301" type="curve"/>
      <point x="394" y="308" type="line"/>
      <point x="394" y="203"/>
      <point x="339" y="128"/>
      <point x="266" y="128" type="curve" smooth="yes"/>
      <point x="222" y="128"/>
      <point x="184" y="156"/>
      <point x="180" y="196" type="curve"/>
      <point x="32" y="164" type="line"/>
      <point x="44" y="60"/>
      <point x="136" y="-12"/>
    </contour>
    <contour>
      <point x="276" y="320" type="curve" smooth="yes"/>
      <point x="222" y="320"/>
      <point x="184" y="365"/>
      <point x="184" y="428" type="curve" smooth="yes"/>
      <point x="184" y="491"/>
      <point x="222" y="536"/>
      <point x="276" y="536" type="curve" smooth="yes"/>
      <point x="330" y="536"/>
      <point x="368" y="491"/>
      <point x="368" y="428" type="curve" smooth="yes"/>
      <point x="368" y="365"/>
      <point x="330" y="320"/>
    </contour>
  </outline>
</glyph>
<glyph name="equal" format="2">
  <advance width="600"/>
  <unicode hex="003D"/>
  <outline>
    <contour>
      <point x="92" y="352" type="line"/>
      <point x="508" y="352" type="line"/>
      <point x="508" y="488" type="line"/>
      <point x="92" y="488" type="line"/>
    </contour>
    <contour>
      <point x="92" y="152" type="line"/>
      <point x="508" y="152" type="line"/>
      <point x="508" y="290" type="line"/>
      <point x="92" y="290" type="line"/>
    </contour>
  </outline>
</glyph>
<glyph name="greater" format="2">
  <advance width="600"/>
  <unicode hex="003E"/>
  <outline>
    <contour>
      <point x="124" y="114" type="line"/>
      <point x="520" y="250" type="line"/>
      <point x="520" y="386" type="line"/>
      <point x="126" y="532" type="line"/>
      <point x="94" y="388" type="line"/>
      <point x="380" y="324" type="line"/>
      <point x="92" y="260" type="line"/>
    </contour>
  </outline>
</glyph>
<glyph name="question" format="2">
  <advance width="484"/>
  <unicode hex="003F"/>
  <outline>
    <contour>
      <point x="168" y="216" type="line"/>
      <point x="272" y="216" type="line"/>
      <point x="295" y="333"/>
      <point x="468" y="328"/>
      <point x="468" y="496" type="curve" smooth="yes"/>
      <point x="468" y="615"/>
      <point x="383" y="692"/>
      <point x="252" y="692" type="curve" smooth="yes"/>
      <point x="116" y="692"/>
      <point x="20" y="606"/>
      <point x="12" y="482" type="curve"/>
      <point x="168" y="466" type="line"/>
      <point x="168" y="518"/>
      <point x="200" y="556"/>
      <point x="244" y="556" type="curve" smooth="yes"/>
      <point x="285" y="556"/>
      <point x="312" y="524"/>
      <point x="312" y="476" type="curve" smooth="yes"/>
      <point x="312" y="368"/>
      <point x="168" y="354"/>
      <point x="168" y="222" type="curve" smooth="yes"/>
    </contour>
    <component base="period" xOffset="108"/>
  </outline>
</glyph>
<glyph name="at" format="2">
  <advance width="760"/>
  <unicode hex="0040"/>
  <outline>
    <contour>
      <point x="384" y="-56" type="curve" smooth="yes"/>
      <point x="460" y="-56"/>
      <point x="528" y="-36"/>
      <point x="580" y="0" type="curve"/>
      <point x="528" y="84" type="line"/>
      <point x="488" y="53"/>
      <point x="437" y="38"/>
      <point x="380" y="38" type="curve" smooth="yes"/>
      <point x="236" y="38"/>
      <point x="132" y="151"/>
      <point x="132" y="306" type="curve" smooth="yes"/>
      <point x="132" y="461"/>
      <point x="236" y="576"/>
      <point x="380" y="576" type="curve" smooth="yes"/>
      <point x="526" y="576"/>
      <point x="632" y="465"/>
      <point x="632" y="312" type="curve" smooth="yes"/>
      <point x="632" y="235"/>
      <point x="608" y="180"/>
      <point x="574" y="180" type="curve" smooth="yes"/>
      <point x="559" y="180"/>
      <point x="548" y="192"/>
      <point x="548" y="208" type="curve" smooth="yes"/>
      <point x="548" y="488" type="line"/>
      <point x="474" y="488" type="line"/>
      <point x="450" y="424" type="line"/>
      <point x="468" y="300" type="line"/>
      <point x="450" y="204" type="line"/>
      <point x="450" y="141"/>
      <point x="500" y="96"/>
      <point x="568" y="96" type="curve" smooth="yes"/>
      <point x="663" y="96"/>
      <point x="732" y="188"/>
      <point x="732" y="316" type="curve" smooth="yes"/>
      <point x="732" y="525"/>
      <point x="580" y="666"/>
      <point x="376" y="666" type="curve" smooth="yes"/>
      <point x="172" y="666"/>
      <point x="28" y="514"/>
      <point x="28" y="305" type="curve" smooth="yes"/>
      <point x="28" y="96"/>
      <point x="176" y="-56"/>
    </contour>
    <contour>
      <point x="348" y="100" type="curve" smooth="yes"/>
      <point x="438" y="100"/>
      <point x="504" y="184"/>
      <point x="504" y="300" type="curve" smooth="yes"/>
      <point x="504" y="414"/>
      <point x="438" y="496"/>
      <point x="348" y="496" type="curve" smooth="yes"/>
      <point x="253" y="496"/>
      <point x="184" y="412"/>
      <point x="184" y="296" type="curve" smooth="yes"/>
      <point x="184" y="182"/>
      <point x="253" y="100"/>
    </contour>
    <contour>
      <point x="372" y="226" type="curve" smooth="yes"/>
      <point x="337" y="226"/>
      <point x="312" y="257"/>
      <point x="312" y="300" type="curve" smooth="yes"/>
      <point x="312" y="342"/>
      <point x="337" y="373"/>
      <point x="372" y="373" type="curve" smooth="yes"/>
      <point x="407" y="373"/>
      <point x="433" y="342"/>
      <point x="433" y="300" type="curve" smooth="yes"/>
      <point x="433" y="257"/>
      <point x="407" y="226"/>
    </contour>
  </outline>
</glyph>
<glyph name="A" format="2">
  <advance width="648"/>
  <unicode hex="0041"/>
  <anchor x="564" y="0" name="ogonek"/>
  <anchor x="324" y="650" name="top"/>
  <outline>
    <contour>
      <point x="4" y="0" type="line"/>
      <point x="166" y="0" type="line"/>
      <point x="322" y="500" type="line"/>
      <point x="484" y="0" type="line"/>
      <point x="644" y="0" type="line"/>
      <point x="414" y="650" type="line"/>
      <point x="234" y="650" type="line"/>
    </contour>
    <contour>
      <point x="192" y="148" type="line"/>
      <point x="456" y="148" type="line"/>
      <point x="456" y="252" type="line"/>
      <point x="192" y="252" type="line"/>
    </contour>
  </outline>
</glyph>
<glyph name="B" format="2">
  <advance width="600"/>
  <unicode hex="0042"/>
  <outline>
    <contour>
      <point x="178" y="0" type="line"/>
      <point x="400" y="0" type="line" smooth="yes"/>
      <point x="502" y="0"/>
      <point x="574" y="73"/>
      <point x="574" y="176" type="curve" smooth="yes"/>
      <point x="574" y="260"/>
      <point x="520" y="324"/>
      <point x="436" y="340" type="curve"/>
      <point x="503" y="360"/>
      <point x="546" y="418"/>
      <point x="546" y="488" type="curve" smooth="yes"/>
      <point x="546" y="583"/>
      <point x="479" y="650"/>
      <point x="384" y="650" type="curve" smooth="yes"/>
      <point x="178" y="650" type="line"/>
      <point x="178" y="520" type="line"/>
      <point x="332" y="520" type="line" smooth="yes"/>
      <point x="371" y="520"/>
      <point x="398" y="492"/>
      <point x="398" y="452" type="curve" smooth="yes"/>
      <point x="398" y="412"/>
      <point x="370" y="384"/>
      <point x="330" y="384" type="curve" smooth="yes"/>
      <point x="178" y="384" type="line"/>
      <point x="178" y="280" type="line"/>
      <point x="350" y="280" type="line" smooth="yes"/>
      <point x="392" y="280"/>
      <point x="422" y="249"/>
      <point x="422" y="206" type="curve" smooth="yes"/>
      <point x="422" y="163"/>
      <point x="391" y="132"/>
      <point x="348" y="132" type="curve" smooth="yes"/>
      <point x="178" y="132" type="line"/>
    </contour>
    <contour>
      <point x="50" y="0" type="line"/>
      <point x="198" y="0" type="line"/>
      <point x="198" y="650" type="line"/>
      <point x="50" y="650" type="line"/>
    </contour>
  </outline>
</glyph>
<glyph name="C" format="2">
  <advance width="662"/>
  <unicode hex="0043"/>
  <anchor x="338" y="0" name="bottom"/>
  <anchor x="346" y="650" name="top"/>
  <outline>
    <contour>
      <point x="344" y="-12" type="curve" smooth="yes"/>
      <point x="488" y="-12"/>
      <point x="606" y="72"/>
      <point x="634" y="196" type="curve"/>
      <point x="488" y="260" type="line"/>
      <point x="480" y="184"/>
      <point x="422" y="132"/>
      <point x="346" y="132" type="curve" smooth="yes"/>
      <point x="252" y="132"/>
      <point x="188" y="211"/>
      <point x="188" y="325" type="curve" smooth="yes"/>
      <point x="188" y="440"/>
      <point x="253" y="522"/>
      <point x="346" y="522" type="curve" smooth="yes"/>
      <point x="418" y="522"/>
      <point x="470" y="472"/>
      <point x="482" y="392" type="curve"/>
      <point x="626" y="428" type="line"/>
      <point x="614" y="556"/>
      <point x="500" y="662"/>
      <point x="344" y="662" type="curve" smooth="yes"/>
      <point x="160" y="662"/>
      <point x="28" y="522"/>
      <point x="28" y="325" type="curve" smooth="yes"/>
      <point x="28" y="128"/>
      <point x="159" y="-12"/>
    </contour>
  </outline>
</glyph>
<glyph name="D" format="2">
  <advance width="650"/>
  <unicode hex="0044"/>
  <anchor x="284" y="650" name="top"/>
  <outline>
    <contour>
      <point x="178" y="0" type="line"/>
      <point x="310" y="0" type="line" smooth="yes"/>
      <point x="490" y="0"/>
      <point x="622" y="137"/>
      <point x="622" y="325" type="curve" smooth="yes"/>
      <point x="622" y="515"/>
      <point x="487" y="650"/>
      <point x="298" y="650" type="curve" smooth="yes"/>
      <point x="178" y="650" type="line"/>
      <point x="178" y="516" type="line"/>
      <point x="294" y="516" type="line" smooth="yes"/>
      <point x="394" y="516"/>
      <point x="466" y="437"/>
      <point x="466" y="326" type="curve" smooth="yes"/>
      <point x="466" y="216"/>
      <point x="397" y="136"/>
      <point x="302" y="136" type="curve" smooth="yes"/>
      <point x="178" y="136" type="line"/>
    </contour>
    <contour>
      <point x="50" y="0" type="line"/>
      <point x="198" y="0" type="line"/>
      <point x="198" y="650" type="line"/>
      <point x="50" y="650" type="line"/>
    </contour>
  </outline>
</glyph>
<glyph name="E" format="2">
  <advance width="554"/>
  <unicode hex="0045"/>
  <anchor x="526" y="0" name="ogonek"/>
  <anchor x="288" y="650" name="top"/>
  <outline>
    <contour>
      <point x="50" y="0" type="line"/>
      <point x="198" y="0" type="line"/>
      <point x="198" y="650" type="line"/>
      <point x="50" y="650" type="line"/>
    </contour>
    <contour>
      <point x="178" y="0" type="line"/>
      <point x="526" y="0" type="line"/>
      <point x="526" y="136" type="line"/>
      <point x="178" y="136" type="line"/>
    </contour>
    <contour>
      <point x="178" y="280" type="line"/>
      <point x="458" y="280" type="line"/>
      <point x="458" y="384" type="line"/>
      <point x="178" y="384" type="line"/>
    </contour>
    <contour>
      <point x="178" y="516" type="line"/>
      <point x="516" y="516" type="line"/>
      <point x="516" y="650" type="line"/>
      <point x="178" y="650" type="line"/>
    </contour>
  </outline>
</glyph>
<glyph name="F" format="2">
  <advance width="512"/>
  <unicode hex="0046"/>
  <outline>
    <contour>
      <point x="50" y="0" type="line"/>
      <point x="198" y="0" type="line"/>
      <point x="198" y="650" type="line"/>
      <point x="50" y="650" type="line"/>
    </contour>
    <contour>
      <point x="178" y="250" type="line"/>
      <point x="456" y="250" type="line"/>
      <point x="456" y="358" type="line"/>
      <point x="178" y="358" type="line"/>
    </contour>
    <contour>
      <point x="178" y="514" type="line"/>
      <point x="500" y="514" type="line"/>
      <point x="500" y="650" type="line"/>
      <point x="178" y="650" type="line"/>
    </contour>
  </outline>
</glyph>
<glyph name="G" format="2">
  <advance width="700"/>
  <unicode hex="0047"/>
  <anchor x="348" y="0" name="bottom"/>
  <anchor x="348" y="650" name="top"/>
  <outline>
    <contour>
      <point x="328" y="-12" type="curve" smooth="yes"/>
      <point x="448" y="-12"/>
      <point x="540" y="60"/>
      <point x="548" y="160" type="curve"/>
      <point x="548" y="282" type="line"/>
      <point x="492" y="282" type="line"/>
      <point x="492" y="262" type="line"/>
      <point x="488" y="184"/>
      <point x="428" y="128"/>
      <point x="350" y="128" type="curve" smooth="yes"/>
      <point x="254" y="128"/>
      <point x="184" y="213"/>
      <point x="184" y="328" type="curve" smooth="yes"/>
      <point x="184" y="443"/>
      <point x="250" y="524"/>
      <point x="344" y="524" type="curve" smooth="yes"/>
      <point x="416" y="524"/>
      <point x="470" y="474"/>
      <point x="482" y="404" type="curve"/>
      <point x="628" y="456" type="line"/>
      <point x="604" y="577"/>
      <point x="488" y="662"/>
      <point x="348" y="662" type="curve" smooth="yes"/>
      <point x="164" y="662"/>
      <point x="28" y="524"/>
      <point x="28" y="324" type="curve" smooth="yes"/>
      <point x="28" y="129"/>
      <point x="154" y="-12"/>
    </contour>
    <contour>
      <point x="572" y="0" type="line"/>
      <point x="664" y="0" type="line"/>
      <point x="632" y="360" type="line"/>
      <point x="278" y="360" type="line"/>
      <point x="278" y="256" type="line"/>
      <point x="536" y="256" type="line"/>
      <point x="536" y="152" type="line"/>
    </contour>
  </outline>
</glyph>
<glyph name="H" format="2">
  <advance width="652"/>
  <unicode hex="0048"/>
  <outline>
    <contour>
      <point x="454" y="0" type="line"/>
      <point x="602" y="0" type="line"/>
      <point x="602" y="650" type="line"/>
      <point x="454" y="650" type="line"/>
    </contour>
    <contour>
      <point x="50" y="0" type="line"/>
      <point x="198" y="0" type="line"/>
      <point x="198" y="650" type="line"/>
      <point x="50" y="650" type="line"/>
    </contour>
    <contour>
      <point x="178" y="272" type="line"/>
      <point x="474" y="272" type="line"/>
      <point x="474" y="392" type="line"/>
      <point x="178" y="392" type="line"/>
    </contour>
  </outline>
</glyph>
<glyph name="I" format="2">
  <advance width="248"/>
  <unicode hex="0049"/>
  <anchor x="198" y="0" name="ogonek"/>
  <anchor x="124" y="650" name="top"/>
  <outline>
    <contour>
      <point x="50" y="0" type="line"/>
      <point x="198" y="0" type="line"/>
      <point x="198" y="650" type="line"/>
      <point x="50" y="650" type="line"/>
    </contour>
  </outline>
</glyph>
<glyph name="J" format="2">
  <advance width="576"/>
  <unicode hex="004A"/>
  <outline>
    <contour>
      <point x="288" y="-12" type="curve" smooth="yes"/>
      <point x="430" y="-12"/>
      <point x="532" y="91"/>
      <point x="532" y="236" type="curve" smooth="yes"/>
      <point x="532" y="650" type="line"/>
      <point x="384" y="650" type="line"/>
      <point x="384" y="236" type="line" smooth="yes"/>
      <point x="384" y="174"/>
      <point x="342" y="130"/>
      <point x="284" y="130" type="curve" smooth="yes"/>
      <point x="228" y="130"/>
      <point x="188" y="173"/>
      <point x="188" y="232" type="curve" smooth="yes"/>
      <point x="188" y="356" type="line"/>
      <point x="40" y="356" type="line"/>
      <point x="40" y="232" type="line" smooth="yes"/>
      <point x="40" y="90"/>
      <point x="143" y="-12"/>
    </contour>
  </outline>
</glyph>
<glyph name="K" format="2">
  <advance width="618"/>
  <unicode hex="004B"/>
  <anchor x="312" y="0" name="bottom"/>
  <anchor x="309" y="650" name="top"/>
  <outline>
    <contour>
      <point x="178" y="154" type="line"/>
      <point x="594" y="650" type="line"/>
      <point x="398" y="650" type="line"/>
      <point x="178" y="344" type="line"/>
    </contour>
    <contour>
      <point x="434" y="0" type="line"/>
      <point x="614" y="0" type="line"/>
      <point x="356" y="390" type="line"/>
      <point x="270" y="284" type="line"/>
    </contour>
    <component base="I"/>
  </outline>
</glyph>
<glyph name="L" format="2">
  <advance width="504"/>
  <unicode hex="004C"/>
  <anchor x="280" y="0" name="bottom"/>
  <anchor x="132" y="650" name="top"/>
  <anchor x="318" y="470" name="topright"/>
  <outline>
    <contour>
      <point x="50" y="0" type="line"/>
      <point x="198" y="0" type="line"/>
      <point x="198" y="650" type="line"/>
      <point x="50" y="650" type="line"/>
    </contour>
    <contour>
      <point x="178" y="0" type="line"/>
      <point x="498" y="0" type="line"/>
      <point x="498" y="142" type="line"/>
      <point x="178" y="142" type="line"/>
    </contour>
  </outline>
</glyph>
<glyph name="M" format="2">
  <advance width="788"/>
  <unicode hex="004D"/>
  <outline>
    <contour>
      <point x="50" y="0" type="line"/>
      <point x="198" y="0" type="line"/>
      <point x="198" y="504" type="line"/>
      <point x="343" y="0" type="line"/>
      <point x="449" y="0" type="line"/>
      <point x="590" y="504" type="line"/>
      <point x="590" y="0" type="line"/>
      <point x="738" y="0" type="line"/>
      <point x="738" y="650" type="line"/>
      <point x="542" y="650" type="line"/>
      <point x="398" y="136" type="line"/>
      <point x="252" y="650" type="line"/>
      <point x="50" y="650" type="line"/>
    </contour>
  </outline>
</glyph>
<glyph name="N" format="2">
  <advance width="648"/>
  <unicode hex="004E"/>
  <anchor x="314" y="0" name="bottom"/>
  <anchor x="322" y="650" name="top"/>
  <outline>
    <contour>
      <point x="50" y="0" type="line"/>
      <point x="198" y="0" type="line"/>
      <point x="198" y="436" type="line"/>
      <point x="434" y="0" type="line"/>
      <point x="598" y="0" type="line"/>
      <point x="598" y="650" type="line"/>
      <point x="450" y="650" type="line"/>
      <point x="450" y="210" type="line"/>
      <point x="218" y="650" type="line"/>
      <point x="50" y="650" type="line"/>
    </contour>
  </outline>
</glyph>
<glyph name="O" format="2">
  <advance width="704"/>
  <unicode hex="004F"/>
  <anchor x="352" y="650" name="top"/>
  <outline>
    <contour>
      <point x="352" y="-12" type="curve" smooth="yes"/>
      <point x="542" y="-12"/>
      <point x="676" y="128"/>
      <point x="676" y="325" type="curve" smooth="yes"/>
      <point x="676" y="522"/>
      <point x="542" y="662"/>
      <point x="352" y="662" type="curve" smooth="yes"/>
      <point x="162" y="662"/>
      <point x="28" y="522"/>
      <point x="28" y="325" type="curve" smooth="yes"/>
      <point x="28" y="128"/>
      <point x="162" y="-12"/>
    </contour>
    <contour>
      <point x="352" y="132" type="curve" smooth="yes"/>
      <point x="254" y="132"/>
      <point x="184" y="213"/>
      <point x="184" y="327" type="curve" smooth="yes"/>
      <point x="184" y="441"/>
      <point x="254" y="522"/>
      <point x="352" y="522" type="curve" smooth="yes"/>
      <point x="450" y="522"/>
      <point x="520" y="441"/>
      <point x="520" y="327" type="curve" smooth="yes"/>
      <point x="520" y="213"/>
      <point x="450" y="132"/>
    </contour>
  </outline>
</glyph>
<glyph name="P" format="2">
  <advance width="588"/>
  <unicode hex="0050"/>
  <outline>
    <contour>
      <point x="178" y="216" type="line"/>
      <point x="352" y="216" type="line" smooth="yes"/>
      <point x="482" y="216"/>
      <point x="574" y="306"/>
      <point x="574" y="434" type="curve" smooth="yes"/>
      <point x="574" y="561"/>
      <point x="485" y="650"/>
      <point x="360" y="650" type="curve" smooth="yes"/>
      <point x="178" y="650" type="line"/>
      <point x="178" y="516" type="line"/>
      <point x="336" y="516" type="line" smooth="yes"/>
      <point x="384" y="516"/>
      <point x="418" y="478"/>
      <point x="418" y="424" type="curve" smooth="yes"/>
      <point x="418" y="370"/>
      <point x="384" y="332"/>
      <point x="336" y="332" type="curve" smooth="yes"/>
      <point x="178" y="332" type="line"/>
    </contour>
    <contour>
      <point x="50" y="0" type="line"/>
      <point x="198" y="0" type="line"/>
      <point x="198" y="650" type="line"/>
      <point x="50" y="650" type="line"/>
    </contour>
  </outline>
</glyph>
<glyph name="Q" format="2">
  <advance width="704"/>
  <unicode hex="0051"/>
  <outline>
    <contour>
      <point x="356" y="-12" type="curve" smooth="yes"/>
      <point x="546" y="-12"/>
      <point x="676" y="123"/>
      <point x="676" y="321" type="curve" smooth="yes"/>
      <point x="676" y="521"/>
      <point x="543" y="662"/>
      <point x="354" y="662" type="curve" smooth="yes"/>
      <point x="163" y="662"/>
      <point x="28" y="522"/>
      <point x="28" y="323" type="curve" smooth="yes"/>
      <point x="28" y="127"/>
      <point x="164" y="-12"/>
    </contour>
    <contour>
      <point x="572" y="-76" type="line"/>
      <point x="664" y="-4" type="line"/>
      <point x="548" y="144" type="line"/>
      <point x="442" y="288" type="line"/>
      <point x="368" y="388" type="line"/>
      <point x="284" y="320" type="line"/>
      <point x="358" y="220" type="line"/>
      <point x="468" y="76" type="line"/>
    </contour>
    <contour>
      <point x="356" y="132" type="curve" smooth="yes"/>
      <point x="253" y="132"/>
      <point x="180" y="211"/>
      <point x="180" y="323" type="curve" smooth="yes"/>
      <point x="180" y="440"/>
      <point x="252" y="522"/>
      <point x="354" y="522" type="curve" smooth="yes"/>
      <point x="454" y="522"/>
      <point x="524" y="439"/>
      <point x="524" y="321" type="curve" smooth="yes"/>
      <point x="524" y="207"/>
      <point x="456" y="132"/>
    </contour>
  </outline>
</glyph>
<glyph name="R" format="2">
  <advance width="620"/>
  <unicode hex="0052"/>
  <anchor x="298" y="0" name="bottom"/>
  <anchor x="306" y="650" name="top"/>
  <outline>
    <contour>
      <point x="178" y="236" type="line"/>
      <point x="362" y="236" type="line" smooth="yes"/>
      <point x="491" y="236"/>
      <point x="582" y="321"/>
      <point x="582" y="442" type="curve" smooth="yes"/>
      <point x="582" y="564"/>
      <point x="497" y="650"/>
      <point x="378" y="650" type="curve" smooth="yes"/>
      <point x="178" y="650" type="line"/>
      <point x="178" y="516" type="line"/>
      <point x="344" y="516" type="line" smooth="yes"/>
      <point x="392" y="516"/>
      <point x="426" y="480"/>
      <point x="426" y="428" type="curve" smooth="yes"/>
      <point x="426" y="376"/>
      <point x="390" y="340"/>
      <point x="340" y="340" type="curve" smooth="yes"/>
      <point x="178" y="340" type="line"/>
    </contour>
    <contour>
      <point x="50" y="0" type="line"/>
      <point x="198" y="0" type="line"/>
      <point x="198" y="650" type="line"/>
      <point x="50" y="650" type="line"/>
    </contour>
    <contour>
      <point x="418" y="0" type="line"/>
      <point x="594" y="0" type="line"/>
      <point x="456" y="280" type="line"/>
      <point x="316" y="280" type="line"/>
    </contour>
  </outline>
</glyph>
<glyph name="S" format="2">
  <advance width="596"/>
  <unicode hex="0053"/>
  <note>
Stretta?
</note>
  <anchor x="300" y="0" name="bottom"/>
  <anchor x="296" y="650" name="top"/>
  <outline>
    <contour>
      <point x="308" y="-12" type="curve" smooth="yes"/>
      <point x="463" y="-12"/>
      <point x="572" y="67"/>
      <point x="572" y="180" type="curve" smooth="yes"/>
      <point x="572" y="388"/>
      <point x="200" y="352"/>
      <point x="200" y="470" type="curve" smooth="yes"/>
      <point x="200" y="507"/>
      <point x="235" y="534"/>
      <point x="284" y="534" type="curve" smooth="yes"/>
      <point x="342" y="534"/>
      <point x="386" y="497"/>
      <point x="390" y="444" type="curve"/>
      <point x="556" y="484" type="line"/>
      <point x="544" y="588"/>
      <point x="435" y="662"/>
      <point x="288" y="662" type="curve" smooth="yes"/>
      <point x="144" y="662"/>
      <point x="48" y="588"/>
      <point x="48" y="484" type="curve" smooth="yes"/>
      <point x="48" y="284"/>
      <point x="412" y="308"/>
      <point x="412" y="184" type="curve" smooth="yes"/>
      <point x="412" y="140"/>
      <point x="365" y="120"/>
      <point x="316" y="120" type="curve" smooth="yes"/>
      <point x="241" y="120"/>
      <point x="196" y="166"/>
      <point x="192" y="229" type="curve"/>
      <point x="20" y="193" type="line"/>
      <point x="24" y="75"/>
      <point x="146" y="-12"/>
    </contour>
  </outline>
</glyph>
<glyph name="T" format="2">
  <advance width="564"/>
  <unicode hex="0054"/>
  <anchor x="282" y="0" name="bottom"/>
  <anchor x="282" y="650" name="top"/>
  <outline>
    <contour>
      <point x="208" y="0" type="line"/>
      <point x="356" y="0" type="line"/>
      <point x="356" y="530" type="line"/>
      <point x="208" y="530" type="line"/>
    </contour>
    <contour>
      <point x="2" y="510" type="line"/>
      <point x="562" y="510" type="line"/>
      <point x="562" y="650" type="line"/>
      <point x="2" y="650" type="line"/>
    </contour>
  </outline>
</glyph>
<glyph name="U" format="2">
  <advance width="628"/>
  <unicode hex="0055"/>
  <anchor x="452" y="0" name="ogonek"/>
  <anchor x="316" y="650" name="top"/>
  <outline>
    <contour>
      <point x="314" y="-12" type="curve" smooth="yes"/>
      <point x="472" y="-12"/>
      <point x="584" y="102"/>
      <point x="584" y="264" type="curve" smooth="yes"/>
      <point x="584" y="650" type="line"/>
      <point x="436" y="650" type="line"/>
      <point x="436" y="272" type="line" smooth="yes"/>
      <point x="436" y="190"/>
      <point x="385" y="132"/>
      <point x="314" y="132" type="curve" smooth="yes"/>
      <point x="243" y="132"/>
      <point x="192" y="190"/>
      <point x="192" y="272" type="curve" smooth="yes"/>
      <point x="192" y="650" type="line"/>
      <point x="44" y="650" type="line"/>
      <point x="44" y="264" type="line" smooth="yes"/>
      <point x="44" y="102"/>
      <point x="156" y="-12"/>
    </contour>
  </outline>
</glyph>
<glyph name="V" format="2">
  <advance width="616"/>
  <unicode hex="0056"/>
  <outline>
    <contour>
      <point x="212" y="0" type="line"/>
      <point x="404" y="0" type="line"/>
      <point x="614" y="650" type="line"/>
      <point x="454" y="650" type="line"/>
      <point x="312" y="142" type="line"/>
      <point x="166" y="650" type="line"/>
      <point x="2" y="650" type="line"/>
    </contour>
  </outline>
</glyph>
<glyph name="W" format="2">
  <advance width="780"/>
  <unicode hex="0057"/>
  <note>
make alternate
</note>
  <outline>
    <contour>
      <point x="102" y="0" type="line"/>
      <point x="288" y="0" type="line"/>
      <point x="390" y="500" type="line"/>
      <point x="494" y="0" type="line"/>
      <point x="672" y="0" type="line"/>
      <point x="744" y="650" type="line"/>
      <point x="592" y="650" type="line"/>
      <point x="546" y="160" type="line"/>
      <point x="452" y="648" type="line"/>
      <point x="330" y="648" type="line"/>
      <point x="236" y="160" type="line"/>
      <point x="190" y="650" type="line"/>
      <point x="34" y="650" type="line"/>
    </contour>
  </outline>
</glyph>
<glyph name="X" format="2">
  <advance width="624"/>
  <unicode hex="0058"/>
  <outline>
    <contour>
      <point x="4" y="0" type="line"/>
      <point x="196" y="0" type="line"/>
      <point x="312" y="208" type="line"/>
      <point x="426" y="0" type="line"/>
      <point x="620" y="0" type="line"/>
      <point x="394" y="332" type="line"/>
      <point x="604" y="650" type="line"/>
      <point x="416" y="650" type="line"/>
      <point x="312" y="448" type="line"/>
      <point x="200" y="650" type="line"/>
      <point x="8" y="650" type="line"/>
      <point x="230" y="326" type="line"/>
    </contour>
  </outline>
</glyph>
<glyph name="Y" format="2">
  <advance width="600"/>
  <unicode hex="0059"/>
  <anchor x="312" y="650" name="top"/>
  <outline>
    <contour>
      <point x="234" y="0" type="line"/>
      <point x="382" y="0" type="line"/>
      <point x="382" y="192" type="line"/>
      <point x="600" y="650" type="line"/>
      <point x="426" y="650" type="line"/>
      <point x="310" y="336" type="line"/>
      <point x="178" y="650" type="line"/>
      <point x="0" y="650" type="line"/>
      <point x="234" y="192" type="line"/>
    </contour>
  </outline>
</glyph>
<glyph name="Z" format="2">
  <advance width="568"/>
  <unicode hex="005A"/>
  <anchor x="284" y="650" name="top"/>
  <outline>
    <contour>
      <point x="32" y="0" type="line"/>
      <point x="536" y="0" type="line"/>
      <point x="536" y="142" type="line"/>
      <point x="192" y="142" type="line"/>
      <point x="530" y="514" type="line"/>
      <point x="530" y="650" type="line"/>
      <point x="40" y="650" type="line"/>
      <point x="40" y="510" type="line"/>
      <point x="374" y="510" type="line"/>
      <point x="32" y="138" type="line"/>
    </contour>
  </outline>
</glyph>
<glyph name="bracketleft" format="2">
  <advance width="332"/>
  <unicode hex="005B"/>
  <outline>
    <contour>
      <point x="50" y="-200" type="line"/>
      <point x="194" y="-200" type="line"/>
      <point x="194" y="680" type="line"/>
      <point x="50" y="680" type="line"/>
    </contour>
    <contour>
      <point x="174" y="-200" type="line"/>
      <point x="330" y="-200" type="line"/>
      <point x="330" y="-82" type="line"/>
      <point x="174" y="-82" type="line"/>
    </contour>
    <contour>
      <point x="174" y="564" type="line"/>
      <point x="328" y="564" type="line"/>
      <point x="328" y="680" type="line"/>
      <point x="174" y="680" type="line"/>
    </contour>
  </outline>
</glyph>
<glyph name="backslash" format="2">
  <advance width="308"/>
  <unicode hex="005C"/>
  <outline>
    <contour>
      <point x="180" y="-212" type="line"/>
      <point x="320" y="-180" type="line"/>
      <point x="140" y="692" type="line"/>
      <point x="0" y="664" type="line"/>
    </contour>
  </outline>
</glyph>
<glyph name="asciicircum" format="2">
  <advance width="400"/>
  <unicode hex="005E"/>
  <outline>
    <contour>
      <point x="12" y="346" type="line"/>
      <point x="152" y="320" type="line"/>
      <point x="200" y="524" type="line"/>
      <point x="248" y="320" type="line"/>
      <point x="388" y="346" type="line"/>
      <point x="264" y="650" type="line"/>
      <point x="136" y="650" type="line"/>
    </contour>
  </outline>
</glyph>
<glyph name="a" format="2">
  <advance width="512"/>
  <unicode hex="0061"/>
  <anchor x="440" y="0" name="ogonek"/>
  <anchor x="254" y="500" name="top"/>
  <outline>
    <contour>
      <point x="190" y="-12" type="curve" smooth="yes"/>
      <point x="290" y="-12"/>
      <point x="366" y="57"/>
      <point x="370" y="152" type="curve"/>
      <point x="328" y="228" type="line"/>
      <point x="328" y="160"/>
      <point x="282" y="118"/>
      <point x="230" y="118" type="curve" smooth="yes"/>
      <point x="194" y="118"/>
      <point x="174" y="137"/>
      <point x="174" y="164" type="curve" smooth="yes"/>
      <point x="174" y="188"/>
      <point x="190" y="206"/>
      <point x="218" y="212" type="curve" smooth="yes"/>
      <point x="294" y="228" type="line" smooth="yes"/>
      <point x="313" y="232"/>
      <point x="342" y="240"/>
      <point x="348" y="244" type="curve"/>
      <point x="328" y="256" type="line"/>
      <point x="328" y="84" type="line"/>
      <point x="360" y="0" type="line"/>
      <point x="470" y="0" type="line"/>
      <point x="468" y="100" type="line"/>
      <point x="468" y="324" type="line" smooth="yes"/>
      <point x="468" y="433"/>
      <point x="377" y="512"/>
      <point x="252" y="512" type="curve" smooth="yes"/>
      <point x="155" y="512"/>
      <point x="69" y="452"/>
      <point x="46" y="368" type="curve"/>
      <point x="182" y="320" type="line"/>
      <point x="186" y="357"/>
      <point x="218" y="384"/>
      <point x="258" y="384" type="curve" smooth="yes"/>
      <point x="299" y="384"/>
      <point x="328" y="359"/>
      <point x="328" y="324" type="curve" smooth="yes"/>
      <point x="328" y="316"/>
      <point x="322" y="308"/>
      <point x="310" y="306" type="curve" smooth="yes"/>
      <point x="146" y="272" type="line" smooth="yes"/>
      <point x="76" y="257"/>
      <point x="26" y="200"/>
      <point x="26" y="136" type="curve" smooth="yes"/>
      <point x="26" y="50"/>
      <point x="95" y="-12"/>
    </contour>
  </outline>
</glyph>
<glyph name="b" format="2">
  <advance width="578"/>
  <unicode hex="0062"/>
  <outline>
    <contour>
      <point x="342" y="-12" type="curve" smooth="yes"/>
      <point x="464" y="-12"/>
      <point x="552" y="98"/>
      <point x="552" y="252" type="curve" smooth="yes"/>
      <point x="552" y="404"/>
      <point x="464" y="512"/>
      <point x="340" y="512" type="curve" smooth="yes"/>
      <point x="218" y="512"/>
      <point x="130" y="404"/>
      <point x="130" y="252" type="curve" smooth="yes"/>
      <point x="130" y="98"/>
      <point x="218" y="-12"/>
    </contour>
    <contour>
      <point x="50" y="0" type="line"/>
      <point x="158" y="0" type="line"/>
      <point x="190" y="84" type="line"/>
      <point x="170" y="251" type="line"/>
      <point x="190" y="403" type="line"/>
      <point x="190" y="680" type="line"/>
      <point x="50" y="680" type="line"/>
    </contour>
    <contour>
      <point x="300" y="124" type="curve" smooth="yes"/>
      <point x="236" y="124"/>
      <point x="190" y="177"/>
      <point x="190" y="251" type="curve" smooth="yes"/>
      <point x="190" y="325"/>
      <point x="236" y="378"/>
      <point x="300" y="378" type="curve" smooth="yes"/>
      <point x="364" y="378"/>
      <point x="410" y="325"/>
      <point x="410" y="251" type="curve" smooth="yes"/>
      <point x="410" y="177"/>
      <point x="364" y="124"/>
    </contour>
  </outline>
</glyph>
<glyph name="c" format="2">
  <advance width="532"/>
  <unicode hex="0063"/>
  <anchor x="268" y="0" name="bottom"/>
  <anchor x="274" y="500" name="top"/>
  <outline>
    <contour>
      <point x="276" y="-12" type="curve" smooth="yes"/>
      <point x="394" y="-12"/>
      <point x="488" y="56"/>
      <point x="508" y="172" type="curve"/>
      <point x="372" y="214" type="line"/>
      <point x="366" y="158"/>
      <point x="325" y="122"/>
      <point x="276" y="122" type="curve" smooth="yes"/>
      <point x="216" y="122"/>
      <point x="172" y="175"/>
      <point x="172" y="250" type="curve" smooth="yes"/>
      <point x="172" y="325"/>
      <point x="214" y="380"/>
      <point x="274" y="380" type="curve" smooth="yes"/>
      <point x="320" y="380"/>
      <point x="356" y="348"/>
      <point x="368" y="294" type="curve"/>
      <point x="500" y="332" type="line"/>
      <point x="488" y="437"/>
      <point x="395" y="512"/>
      <point x="276" y="512" type="curve" smooth="yes"/>
      <point x="130" y="512"/>
      <point x="26" y="403"/>
      <point x="26" y="248" type="curve" smooth="yes"/>
      <point x="26" y="96"/>
      <point x="130" y="-12"/>
    </contour>
  </outline>
</glyph>
<glyph name="d" format="2">
  <advance width="580"/>
  <unicode hex="0064"/>
  <anchor x="570" y="500" name="topright"/>
  <outline>
    <contour>
      <point x="246" y="-12" type="curve" smooth="yes"/>
      <point x="369" y="-12"/>
      <point x="456" y="97"/>
      <point x="456" y="251" type="curve" smooth="yes"/>
      <point x="456" y="404"/>
      <point x="369" y="512"/>
      <point x="246" y="512" type="curve" smooth="yes"/>
      <point x="117" y="512"/>
      <point x="26" y="403"/>
      <point x="26" y="248" type="curve" smooth="yes"/>
      <point x="26" y="96"/>
      <point x="117" y="-12"/>
    </contour>
    <contour>
      <point x="280" y="124" type="curve" smooth="yes"/>
      <point x="216" y="124"/>
      <point x="170" y="177"/>
      <point x="170" y="251" type="curve" smooth="yes"/>
      <point x="170" y="325"/>
      <point x="216" y="378"/>
      <point x="280" y="378" type="curve" smooth="yes"/>
      <point x="344" y="378"/>
      <point x="390" y="325"/>
      <point x="390" y="251" type="curve" smooth="yes"/>
      <point x="390" y="177"/>
      <point x="344" y="124"/>
    </contour>
    <contour>
      <point x="422" y="0" type="line"/>
      <point x="532" y="0" type="line"/>
      <point x="530" y="100" type="line"/>
      <point x="530" y="680" type="line"/>
      <point x="390" y="680" type="line"/>
      <point x="390" y="403" type="line"/>
      <point x="410" y="251" type="line"/>
      <point x="390" y="84" type="line"/>
    </contour>
  </outline>
</glyph>
<glyph name="e" format="2">
  <advance width="542"/>
  <unicode hex="0065"/>
  <anchor x="410" y="0" name="ogonek"/>
  <anchor x="274" y="500" name="top"/>
  <outline>
    <contour>
      <point x="280" y="-12" type="curve" smooth="yes"/>
      <point x="388" y="-12"/>
      <point x="476" y="44"/>
      <point x="504" y="124" type="curve"/>
      <point x="368" y="176" type="line"/>
      <point x="356" y="142"/>
      <point x="322" y="120"/>
      <point x="280" y="120" type="curve" smooth="yes"/>
      <point x="214" y="120"/>
      <point x="168" y="174"/>
      <point x="168" y="252" type="curve" smooth="yes"/>
      <point x="168" y="328"/>
      <point x="211" y="382"/>
      <point x="272" y="382" type="curve" smooth="yes"/>
      <point x="322" y="382"/>
      <point x="362" y="346"/>
      <point x="370" y="296" type="curve"/>
      <point x="148" y="296" type="line"/>
      <point x="148" y="216" type="line"/>
      <point x="514" y="216" type="line"/>
      <point x="532" y="364"/>
      <point x="441" y="512"/>
      <point x="274" y="512" type="curve" smooth="yes"/>
      <point x="130" y="512"/>
      <point x="26" y="402"/>
      <point x="26" y="250" type="curve" smooth="yes"/>
      <point x="26" y="97"/>
      <point x="131" y="-12"/>
    </contour>
  </outline>
</glyph>
<glyph name="f" format="2">
  <advance width="378"/>
  <unicode hex="0066"/>
  <note>
Ascendente corta?
</note>
  <outline>
    <contour>
      <point x="88" y="0" type="line"/>
      <point x="228" y="0" type="line"/>
      <point x="228" y="500" type="line" smooth="yes"/>
      <point x="228" y="552"/>
      <point x="292" y="568"/>
      <point x="340" y="540" type="curve"/>
      <point x="376" y="664" type="line"/>
      <point x="264" y="728"/>
      <point x="88" y="676"/>
      <point x="88" y="512" type="curve" smooth="yes"/>
    </contour>
    <contour>
      <point x="12" y="338" type="line"/>
      <point x="346" y="338" type="line"/>
      <point x="346" y="462" type="line"/>
      <point x="12" y="462" type="line"/>
    </contour>
  </outline>
</glyph>
<glyph name="g" format="2">
  <advance width="572"/>
  <unicode hex="0067"/>
  <anchor x="296" y="500" name="top"/>
  <outline>
    <contour>
      <point x="276" y="-212" type="curve" smooth="yes"/>
      <point x="422" y="-212"/>
      <point x="524" y="-108"/>
      <point x="524" y="40" type="curve" smooth="yes"/>
      <point x="524" y="500" type="line"/>
      <point x="420" y="500" type="line"/>
      <point x="388" y="416" type="line"/>
      <point x="412" y="251" type="line"/>
      <point x="388" y="97" type="line"/>
      <point x="388" y="20" type="line" smooth="yes"/>
      <point x="388" y="-41"/>
      <point x="347" y="-84"/>
      <point x="286" y="-84" type="curve" smooth="yes"/>
      <point x="233" y="-84"/>
      <point x="192" y="-52"/>
      <point x="184" y="0" type="curve"/>
      <point x="36" y="-38" type="line"/>
      <point x="54" y="-142"/>
      <point x="152" y="-212"/>
    </contour>
    <contour>
      <point x="236" y="28" type="curve" smooth="yes"/>
      <point x="360" y="28"/>
      <point x="448" y="128"/>
      <point x="448" y="270" type="curve" smooth="yes"/>
      <point x="448" y="412"/>
      <point x="359" y="512"/>
      <point x="234" y="512" type="curve" smooth="yes"/>
      <point x="111" y="512"/>
      <point x="24" y="412"/>
      <point x="24" y="270" type="curve" smooth="yes"/>
      <point x="24" y="128"/>
      <point x="112" y="28"/>
    </contour>
    <contour>
      <point x="280" y="116" type="curve" smooth="yes"/>
      <point x="217" y="116"/>
      <point x="172" y="170"/>
      <point x="172" y="246" type="curve" smooth="yes"/>
      <point x="172" y="322"/>
      <point x="217" y="376"/>
      <point x="280" y="376" type="curve" smooth="yes"/>
      <point x="343" y="376"/>
      <point x="388" y="322"/>
      <point x="388" y="246" type="curve" smooth="yes"/>
      <point x="388" y="170"/>
      <point x="343" y="116"/>
    </contour>
  </outline>
</glyph>
<glyph name="h" format="2">
  <advance width="560"/>
  <unicode hex="0068"/>
  <outline>
    <contour>
      <point x="50" y="0" type="line"/>
      <point x="190" y="0" type="line"/>
      <point x="190" y="272" type="line" smooth="yes"/>
      <point x="190" y="333"/>
      <point x="230" y="376"/>
      <point x="286" y="376" type="curve" smooth="yes"/>
      <point x="340" y="376"/>
      <point x="376" y="336"/>
      <point x="376" y="280" type="curve" smooth="yes"/>
      <point x="376" y="0" type="line"/>
      <point x="516" y="0" type="line"/>
      <point x="516" y="308" type="line" smooth="yes"/>
      <point x="516" y="427"/>
      <point x="439" y="512"/>
      <point x="332" y="512" type="curve" smooth="yes"/>
      <point x="246" y="512"/>
      <point x="178" y="459"/>
      <point x="170" y="384" type="curve"/>
      <point x="190" y="384" type="line"/>
      <point x="190" y="680" type="line"/>
      <point x="50" y="680" type="line"/>
    </contour>
  </outline>
</glyph>
<glyph name="k" format="2">
  <advance width="542"/>
  <unicode hex="006B"/>
  <anchor x="280" y="0" name="bottom"/>
  <anchor x="271" y="680" name="top"/>
  <outline>
    <contour>
      <point x="170" y="124" type="line"/>
      <point x="526" y="500" type="line"/>
      <point x="346" y="500" type="line"/>
      <point x="170" y="300" type="line"/>
    </contour>
    <contour>
      <point x="370" y="0" type="line"/>
      <point x="542" y="0" type="line"/>
      <point x="336" y="312" type="line"/>
      <point x="244" y="216" type="line"/>
    </contour>
    <component base="l"/>
  </outline>
</glyph>
<glyph name="l" format="2">
  <advance width="240"/>
  <unicode hex="006C"/>
  <anchor x="120" y="0" name="bottom"/>
  <anchor x="120" y="664" name="top"/>
  <anchor x="230" y="500" name="topright"/>
  <outline>
    <contour>
      <point x="50" y="0" type="line"/>
      <point x="190" y="0" type="line"/>
      <point x="190" y="680" type="line"/>
      <point x="50" y="680" type="line"/>
    </contour>
  </outline>
</glyph>
<glyph name="m" format="2">
  <advance width="820"/>
  <unicode hex="006D"/>
  <outline>
    <contour>
      <point x="48" y="0" type="line"/>
      <point x="188" y="0" type="line"/>
      <point x="188" y="276" type="line" smooth="yes"/>
      <point x="188" y="334"/>
      <point x="222" y="376"/>
      <point x="270" y="376" type="curve" smooth="yes"/>
      <point x="314" y="376"/>
      <point x="346" y="339"/>
      <point x="346" y="288" type="curve" smooth="yes"/>
      <point x="346" y="0" type="line"/>
      <point x="484" y="0" type="line"/>
      <point x="484" y="280" type="line" smooth="yes"/>
      <point x="484" y="336"/>
      <point x="517" y="376"/>
      <point x="562" y="376" type="curve" smooth="yes"/>
      <point x="605" y="376"/>
      <point x="636" y="341"/>
      <point x="636" y="292" type="curve" smooth="yes"/>
      <point x="636" y="0" type="line"/>
      <point x="776" y="0" type="line"/>
      <point x="776" y="320" type="line" smooth="yes"/>
      <point x="776" y="432"/>
      <point x="706" y="512"/>
      <point x="608" y="512" type="curve" smooth="yes"/>
      <point x="536" y="512"/>
      <point x="470" y="467"/>
      <point x="450" y="404" type="curve"/>
      <point x="470" y="404" type="line"/>
      <point x="454" y="467"/>
      <point x="391" y="512"/>
      <point x="320" y="512" type="curve" smooth="yes"/>
      <point x="251" y="512"/>
      <point x="189" y="467"/>
      <point x="172" y="404" type="curve"/>
      <point x="192" y="404" type="line"/>
      <point x="156" y="500" type="line"/>
      <point x="48" y="500" type="line"/>
    </contour>
  </outline>
</glyph>
<glyph name="n" format="2">
  <advance width="558"/>
  <unicode hex="006E"/>
  <anchor x="280" y="0" name="bottom"/>
  <anchor x="282" y="500" name="top"/>
  <outline>
    <contour>
      <point x="48" y="0" type="line"/>
      <point x="188" y="0" type="line"/>
      <point x="188" y="272" type="line" smooth="yes"/>
      <point x="188" y="333"/>
      <point x="228" y="376"/>
      <point x="284" y="376" type="curve" smooth="yes"/>
      <point x="338" y="376"/>
      <point x="374" y="336"/>
      <point x="374" y="280" type="curve" smooth="yes"/>
      <point x="374" y="0" type="line"/>
      <point x="514" y="0" type="line"/>
      <point x="514" y="308" type="line" smooth="yes"/>
      <point x="514" y="427"/>
      <point x="439" y="512"/>
      <point x="334" y="512" type="curve" smooth="yes"/>
      <point x="253" y="512"/>
      <point x="184" y="460"/>
      <point x="168" y="392" type="curve"/>
      <point x="188" y="392" type="line"/>
      <point x="154" y="500" type="line"/>
      <point x="48" y="500" type="line"/>
    </contour>
  </outline>
</glyph>
<glyph name="o" format="2">
  <advance width="560"/>
  <unicode hex="006F"/>
  <anchor x="280" y="500" name="top"/>
  <outline>
    <contour>
      <point x="280" y="-12" type="curve" smooth="yes"/>
      <point x="429" y="-12"/>
      <point x="534" y="97"/>
      <point x="534" y="250" type="curve" smooth="yes"/>
      <point x="534" y="403"/>
      <point x="429" y="512"/>
      <point x="280" y="512" type="curve" smooth="yes"/>
      <point x="131" y="512"/>
      <point x="26" y="403"/>
      <point x="26" y="250" type="curve" smooth="yes"/>
      <point x="26" y="97"/>
      <point x="131" y="-12"/>
    </contour>
    <contour>
      <point x="280" y="122" type="curve" smooth="yes"/>
      <point x="216" y="122"/>
      <point x="170" y="175"/>
      <point x="170" y="251" type="curve" smooth="yes"/>
      <point x="170" y="327"/>
      <point x="216" y="380"/>
      <point x="280" y="380" type="curve" smooth="yes"/>
      <point x="344" y="380"/>
      <point x="390" y="327"/>
      <point x="390" y="251" type="curve" smooth="yes"/>
      <point x="390" y="175"/>
      <point x="344" y="122"/>
    </contour>
  </outline>
</glyph>
<glyph name="p" format="2">
  <advance width="576"/>
  <unicode hex="0070"/>
  <outline>
    <contour>
      <point x="340" y="-12" type="curve" smooth="yes"/>
      <point x="462" y="-12"/>
      <point x="550" y="98"/>
      <point x="550" y="252" type="curve" smooth="yes"/>
      <point x="550" y="404"/>
      <point x="462" y="512"/>
      <point x="338" y="512" type="curve" smooth="yes"/>
      <point x="216" y="512"/>
      <point x="128" y="404"/>
      <point x="128" y="252" type="curve" smooth="yes"/>
      <point x="128" y="98"/>
      <point x="216" y="-12"/>
    </contour>
    <contour>
      <point x="48" y="-200" type="line"/>
      <point x="188" y="-200" type="line"/>
      <point x="188" y="97" type="line"/>
      <point x="168" y="251" type="line"/>
      <point x="188" y="416" type="line"/>
      <point x="156" y="500" type="line"/>
      <point x="48" y="500" type="line"/>
    </contour>
    <contour>
      <point x="298" y="124" type="curve" smooth="yes"/>
      <point x="234" y="124"/>
      <point x="188" y="177"/>
      <point x="188" y="251" type="curve" smooth="yes"/>
      <point x="188" y="325"/>
      <point x="234" y="378"/>
      <point x="298" y="378" type="curve" smooth="yes"/>
      <point x="362" y="378"/>
      <point x="408" y="325"/>
      <point x="408" y="251" type="curve" smooth="yes"/>
      <point x="408" y="177"/>
      <point x="362" y="124"/>
    </contour>
  </outline>
</glyph>
<glyph name="q" format="2">
  <advance width="582"/>
  <unicode hex="0071"/>
  <outline>
    <contour>
      <point x="248" y="-12" type="curve" smooth="yes"/>
      <point x="371" y="-12"/>
      <point x="456" y="95"/>
      <point x="456" y="251" type="curve" smooth="yes"/>
      <point x="456" y="405"/>
      <point x="371" y="512"/>
      <point x="248" y="512" type="curve" smooth="yes"/>
      <point x="121" y="512"/>
      <point x="26" y="399"/>
      <point x="26" y="248" type="curve" smooth="yes"/>
      <point x="26" y="100"/>
      <point x="122" y="-12"/>
    </contour>
    <contour>
      <point x="280" y="124" type="curve" smooth="yes"/>
      <point x="216" y="124"/>
      <point x="170" y="177"/>
      <point x="170" y="251" type="curve" smooth="yes"/>
      <point x="170" y="325"/>
      <point x="216" y="378"/>
      <point x="280" y="378" type="curve" smooth="yes"/>
      <point x="344" y="378"/>
      <point x="390" y="325"/>
      <point x="390" y="251" type="curve" smooth="yes"/>
      <point x="390" y="177"/>
      <point x="344" y="124"/>
    </contour>
    <contour>
      <point x="394" y="-200" type="line"/>
      <point x="534" y="-200" type="line"/>
      <point x="534" y="500" type="line"/>
      <point x="426" y="500" type="line"/>
      <point x="394" y="416" type="line"/>
      <point x="418" y="251" type="line"/>
      <point x="394" y="97" type="line"/>
    </contour>
  </outline>
</glyph>
<glyph name="r" format="2">
  <advance width="364"/>
  <unicode hex="0072"/>
  <note>
Rivedere orecchio
</note>
  <anchor x="120" y="0" name="bottom"/>
  <anchor x="200" y="500" name="top"/>
  <outline>
    <contour>
      <point x="48" y="0" type="line"/>
      <point x="188" y="0" type="line"/>
      <point x="188" y="264" type="line" smooth="yes"/>
      <point x="188" y="352"/>
      <point x="262" y="380"/>
      <point x="338" y="344" type="curve"/>
      <point x="356" y="500" type="line"/>
      <point x="276" y="536"/>
      <point x="177" y="488"/>
      <point x="173" y="404" type="curve"/>
      <point x="193" y="404" type="line"/>
      <point x="156" y="500" type="line"/>
      <point x="48" y="500" type="line"/>
    </contour>
  </outline>
</glyph>
<glyph name="s" format="2">
  <advance width="488"/>
  <unicode hex="0073"/>
  <anchor x="250" y="0" name="bottom"/>
  <anchor x="252" y="500" name="top"/>
  <outline>
    <contour>
      <point x="252" y="-12" type="curve" smooth="yes"/>
      <point x="379" y="-12"/>
      <point x="468" y="53"/>
      <point x="468" y="144" type="curve" smooth="yes"/>
      <point x="468" y="308"/>
      <point x="184" y="272"/>
      <point x="184" y="360" type="curve" smooth="yes"/>
      <point x="184" y="383"/>
      <point x="204" y="398"/>
      <point x="234" y="398" type="curve" smooth="yes"/>
      <point x="274" y="398"/>
      <point x="300" y="374"/>
      <point x="300" y="336" type="curve"/>
      <point x="456" y="368" type="line"/>
      <point x="452" y="452"/>
      <point x="366" y="512"/>
      <point x="242" y="512" type="curve" smooth="yes"/>
      <point x="126" y="512"/>
      <point x="44" y="456"/>
      <point x="44" y="372" type="curve" smooth="yes"/>
      <point x="44" y="212"/>
      <point x="320" y="244"/>
      <point x="320" y="152" type="curve" smooth="yes"/>
      <point x="320" y="124"/>
      <point x="298" y="106"/>
      <point x="264" y="106" type="curve" smooth="yes"/>
      <point x="217" y="106"/>
      <point x="186" y="136"/>
      <point x="184" y="182" type="curve"/>
      <point x="20" y="148" type="line"/>
      <point x="27" y="54"/>
      <point x="124" y="-12"/>
    </contour>
  </outline>
</glyph>
<glyph name="t" format="2">
  <advance width="364"/>
  <unicode hex="0074"/>
  <anchor x="212" y="0" name="bottom"/>
  <anchor x="274" y="500" name="topright"/>
  <outline>
    <contour>
      <point x="352" y="4" type="curve"/>
      <point x="328" y="124" type="line"/>
      <point x="272" y="104"/>
      <point x="220" y="120"/>
      <point x="220" y="180" type="curve" smooth="yes"/>
      <point x="220" y="376" type="line"/>
      <point x="340" y="376" type="line"/>
      <point x="340" y="500" type="line"/>
      <point x="220" y="500" type="line"/>
      <point x="220" y="640" type="line"/>
      <point x="88" y="640" type="line"/>
      <point x="88" y="552" type="line" smooth="yes"/>
      <point x="88" y="521"/>
      <point x="69" y="500"/>
      <point x="40" y="500" type="curve" smooth="yes"/>
      <point x="12" y="500" type="line"/>
      <point x="12" y="376" type="line"/>
      <point x="80" y="376" type="line"/>
      <point x="80" y="152" type="line" smooth="yes"/>
      <point x="80" y="4"/>
      <point x="220" y="-40"/>
    </contour>
  </outline>
</glyph>
<glyph name="u" format="2">
  <advance width="550"/>
  <unicode hex="0075"/>
  <anchor x="474" y="0" name="ogonek"/>
  <anchor x="276" y="500" name="top"/>
  <outline>
    <contour>
      <point x="224" y="-12" type="curve" smooth="yes"/>
      <point x="298" y="-12"/>
      <point x="361" y="33"/>
      <point x="376" y="96" type="curve"/>
      <point x="356" y="96" type="line"/>
      <point x="394" y="0" type="line"/>
      <point x="504" y="0" type="line"/>
      <point x="502" y="100" type="line"/>
      <point x="502" y="500" type="line"/>
      <point x="362" y="500" type="line"/>
      <point x="362" y="228" type="line" smooth="yes"/>
      <point x="362" y="169"/>
      <point x="324" y="126"/>
      <point x="272" y="126" type="curve" smooth="yes"/>
      <point x="221" y="126"/>
      <point x="184" y="165"/>
      <point x="184" y="220" type="curve" smooth="yes"/>
      <point x="184" y="500" type="line"/>
      <point x="44" y="500" type="line"/>
      <point x="44" y="188" type="line" smooth="yes"/>
      <point x="44" y="71"/>
      <point x="119" y="-12"/>
    </contour>
  </outline>
</glyph>
<glyph name="v" format="2">
  <advance width="524"/>
  <unicode hex="0076"/>
  <outline>
    <contour>
      <point x="179" y="0" type="line"/>
      <point x="351" y="0" type="line"/>
      <point x="524" y="500" type="line"/>
      <point x="372" y="500" type="line"/>
      <point x="267" y="124" type="line"/>
      <point x="156" y="500" type="line"/>
      <point x="0" y="500" type="line"/>
    </contour>
  </outline>
</glyph>
<glyph name="w" format="2">
  <advance width="664"/>
  <unicode hex="0077"/>
  <outline>
    <contour>
      <point x="96" y="0" type="line"/>
      <point x="264" y="0" type="line"/>
      <point x="332" y="368" type="line"/>
      <point x="402" y="0" type="line"/>
      <point x="562" y="0" type="line"/>
      <point x="644" y="500" type="line"/>
      <point x="502" y="500" type="line"/>
      <point x="450" y="132" type="line"/>
      <point x="388" y="498" type="line"/>
      <point x="276" y="498" type="line"/>
      <point x="216" y="132" type="line"/>
      <point x="168" y="500" type="line"/>
      <point x="20" y="500" type="line"/>
    </contour>
  </outline>
</glyph>
<glyph name="x" format="2">
  <advance width="528"/>
  <unicode hex="0078"/>
  <outline>
    <contour>
      <point x="0" y="0" type="line"/>
      <point x="184" y="0" type="line"/>
      <point x="262" y="148" type="line"/>
      <point x="344" y="0" type="line"/>
      <point x="528" y="0" type="line"/>
      <point x="344" y="254" type="line"/>
      <point x="516" y="500" type="line"/>
      <point x="338" y="500" type="line"/>
      <point x="264" y="360" type="line"/>
      <point x="186" y="500" type="line"/>
      <point x="4" y="500" type="line"/>
      <point x="184" y="254" type="line"/>
    </contour>
  </outline>
</glyph>
<glyph name="y" format="2">
  <advance width="508"/>
  <unicode hex="0079"/>
  <anchor x="256" y="500" name="top"/>
  <outline>
    <contour>
      <point x="144" y="-212" type="line"/>
      <point x="212" y="-209"/>
      <point x="267" y="-156"/>
      <point x="298" y="-72" type="curve" smooth="yes"/>
      <point x="508" y="500" type="line"/>
      <point x="354" y="500" type="line"/>
      <point x="262" y="168" type="line"/>
      <point x="156" y="500" type="line"/>
      <point x="0" y="500" type="line"/>
      <point x="198" y="16" type="line"/>
      <point x="182" y="-20" type="line" smooth="yes"/>
      <point x="165" y="-57"/>
      <point x="122" y="-84"/>
      <point x="78" y="-84" type="curve"/>
    </contour>
  </outline>
</glyph>
<glyph name="z" format="2">
  <advance width="476"/>
  <unicode hex="007A"/>
  <anchor x="236" y="500" name="top"/>
  <outline>
    <contour>
      <point x="28" y="0" type="line"/>
      <point x="448" y="0" type="line"/>
      <point x="448" y="140" type="line"/>
      <point x="172" y="140" type="line"/>
      <point x="440" y="368" type="line"/>
      <point x="440" y="500" type="line"/>
      <point x="40" y="500" type="line"/>
      <point x="40" y="362" type="line"/>
      <point x="300" y="362" type="line"/>
      <point x="28" y="136" type="line"/>
    </contour>
  </outline>
</glyph>
<glyph name="braceleft" format="2">
  <advance width="334"/>
  <unicode hex="007B"/>
  <outline>
    <contour>
      <point x="224" y="-200" type="curve" smooth="yes"/>
      <point x="332" y="-200" type="line"/>
      <point x="332" y="-82" type="line"/>
      <point x="292" y="-82" type="line" smooth="yes"/>
      <point x="255" y="-82"/>
      <point x="228" y="-50"/>
      <point x="228" y="-6" type="curve" smooth="yes"/>
      <point x="228" y="132" type="line" smooth="yes"/>
      <point x="228" y="196"/>
      <point x="188" y="240"/>
      <point x="140" y="246" type="curve"/>
      <point x="188" y="254"/>
      <point x="228" y="296"/>
      <point x="228" y="360" type="curve" smooth="yes"/>
      <point x="228" y="488" type="line" smooth="yes"/>
      <point x="228" y="532"/>
      <point x="255" y="564"/>
      <point x="292" y="564" type="curve" smooth="yes"/>
      <point x="330" y="564" type="line"/>
      <point x="330" y="680" type="line"/>
      <point x="222" y="680" type="line" smooth="yes"/>
      <point x="147" y="680"/>
      <point x="92" y="616"/>
      <point x="92" y="528" type="curve" smooth="yes"/>
      <point x="92" y="392" type="line" smooth="yes"/>
      <point x="92" y="346"/>
      <point x="63" y="312"/>
      <point x="24" y="312" type="curve" smooth="yes"/>
      <point x="8" y="312" type="line"/>
      <point x="8" y="176" type="line"/>
      <point x="24" y="176" type="line" smooth="yes"/>
      <point x="63" y="176"/>
      <point x="92" y="142"/>
      <point x="92" y="96" type="curve" smooth="yes"/>
      <point x="92" y="-50" type="line" smooth="yes"/>
      <point x="92" y="-137"/>
      <point x="147" y="-200"/>
    </contour>
  </outline>
</glyph>
<glyph name="asciitilde" format="2">
  <advance width="600"/>
  <unicode hex="007E"/>
  <outline>
    <contour>
      <point x="398" y="216" type="curve" smooth="yes"/>
      <point x="469" y="216"/>
      <point x="520" y="285"/>
      <point x="520" y="380" type="curve" smooth="yes"/>
      <point x="520" y="416" type="line"/>
      <point x="380" y="416" type="line"/>
      <point x="380" y="410" type="line" smooth="yes"/>
      <point x="380" y="382"/>
      <point x="364" y="361"/>
      <point x="341" y="361" type="curve" smooth="yes"/>
      <point x="300" y="361"/>
      <point x="269" y="424"/>
      <point x="202" y="424" type="curve" smooth="yes"/>
      <point x="131" y="424"/>
      <point x="80" y="355"/>
      <point x="80" y="260" type="curve" smooth="yes"/>
      <point x="80" y="224" type="line"/>
      <point x="220" y="224" type="line"/>
      <point x="220" y="230" type="line" smooth="yes"/>
      <point x="220" y="258"/>
      <point x="236" y="279"/>
      <point x="259" y="279" type="curve" smooth="yes"/>
      <point x="300" y="279"/>
      <point x="331" y="216"/>
    </contour>
  </outline>
</glyph>
<glyph name="exclamdown" format="2">
  <advance width="236"/>
  <unicode hex="00A1"/>
  <outline>
    <contour>
      <point x="44" y="-200" type="line"/>
      <point x="192" y="-200" type="line"/>
      <point x="172" y="276" type="line"/>
      <point x="64" y="276" type="line"/>
    </contour>
    <component base="period" yOffset="340"/>
  </outline>
</glyph>
<glyph name="cent" format="2">
  <advance width="532"/>
  <unicode hex="00A2"/>
  <outline>
    <contour>
      <point x="138" y="-126" type="line"/>
      <point x="236" y="-144" type="line"/>
      <point x="396" y="638" type="line"/>
      <point x="300" y="656" type="line"/>
    </contour>
    <component base="c"/>
  </outline>
</glyph>
<glyph name="sterling" format="2">
  <advance width="536"/>
  <unicode hex="00A3"/>
  <outline>
    <contour>
      <point x="44" y="0" type="line"/>
      <point x="512" y="0" type="line"/>
      <point x="512" y="136" type="line"/>
      <point x="178" y="136" type="line"/>
      <point x="222" y="164"/>
      <point x="248" y="208"/>
      <point x="248" y="264" type="curve" smooth="yes"/>
      <point x="248" y="340"/>
      <point x="202" y="372"/>
      <point x="202" y="440" type="curve" smooth="yes"/>
      <point x="202" y="493"/>
      <point x="233" y="530"/>
      <point x="278" y="530" type="curve" smooth="yes"/>
      <point x="324" y="530"/>
      <point x="358" y="491"/>
      <point x="358" y="436" type="curve"/>
      <point x="510" y="452" type="line"/>
      <point x="502" y="574"/>
      <point x="406" y="662"/>
      <point x="274" y="662" type="curve" smooth="yes"/>
      <point x="147" y="662"/>
      <point x="58" y="585"/>
      <point x="58" y="476" type="curve" smooth="yes"/>
      <point x="58" y="368"/>
      <point x="138" y="340"/>
      <point x="138" y="256" type="curve" smooth="yes"/>
      <point x="138" y="199"/>
      <point x="101" y="155"/>
      <point x="44" y="144" type="curve"/>
    </contour>
    <contour>
      <point x="32" y="252" type="line"/>
      <point x="414" y="252" type="line"/>
      <point x="450" y="344" type="line"/>
      <point x="32" y="344" type="line"/>
    </contour>
  </outline>
</glyph>
<glyph name="currency" format="2">
  <advance width="600"/>
  <unicode hex="00A4"/>
  <outline>
    <contour>
      <point x="170" y="104" type="line"/>
      <point x="258" y="198" type="line"/>
      <point x="176" y="273" type="line"/>
      <point x="86" y="186" type="line"/>
    </contour>
    <contour>
      <point x="430" y="104" type="line"/>
      <point x="514" y="186" type="line"/>
      <point x="430" y="267" type="line"/>
      <point x="344" y="195" type="line"/>
    </contour>
    <contour>
      <point x="425" y="369" type="line"/>
      <point x="512" y="454" type="line"/>
      <point x="430" y="532" type="line"/>
      <point x="346" y="445" type="line"/>
    </contour>
    <contour>
      <point x="174" y="369" type="line"/>
      <point x="253" y="446" type="line"/>
      <point x="170" y="532" type="line"/>
      <point x="88" y="454" type="line"/>
    </contour>
    <component base="degree" xOffset="120" yOffset="-175"/>
  </outline>
</glyph>
<glyph name="yen" format="2">
  <advance width="612"/>
  <unicode hex="00A5"/>
  <outline>
    <contour>
      <point x="96" y="180" type="line"/>
      <point x="524" y="180" type="line"/>
      <point x="524" y="266" type="line"/>
      <point x="96" y="266" type="line"/>
    </contour>
    <contour>
      <point x="94" y="70" type="line"/>
      <point x="526" y="70" type="line"/>
      <point x="526" y="156" type="line"/>
      <point x="94" y="156" type="line"/>
    </contour>
    <component base="Y" xOffset="6"/>
  </outline>
</glyph>
<glyph name="brokenbar" format="2">
  <advance width="244"/>
  <unicode hex="00A6"/>
  <outline>
    <contour>
      <point x="50" y="-200" type="line"/>
      <point x="194" y="-200" type="line"/>
      <point x="194" y="180" type="line"/>
      <point x="50" y="180" type="line"/>
    </contour>
    <contour>
      <point x="50" y="316" type="line"/>
      <point x="194" y="316" type="line"/>
      <point x="194" y="680" type="line"/>
      <point x="50" y="680" type="line"/>
    </contour>
  </outline>
</glyph>
<glyph name="section" format="2">
  <advance width="524"/>
  <unicode hex="00A7"/>
  <outline>
    <contour>
      <point x="272" y="-212" type="curve" smooth="yes"/>
      <point x="407" y="-212"/>
      <point x="500" y="-137"/>
      <point x="500" y="-32" type="curve" smooth="yes"/>
      <point x="500" y="164"/>
      <point x="178" y="132"/>
      <point x="178" y="244" type="curve" smooth="yes"/>
      <point x="178" y="286"/>
      <point x="212" y="316"/>
      <point x="258" y="316" type="curve"/>
      <point x="120" y="380" type="line"/>
      <point x="74" y="348"/>
      <point x="47" y="304"/>
      <point x="47" y="248" type="curve" smooth="yes"/>
      <point x="47" y="56"/>
      <point x="360" y="89"/>
      <point x="360" y="-26" type="curve" smooth="yes"/>
      <point x="360" y="-68"/>
      <point x="318" y="-86"/>
      <point x="276" y="-86" type="curve" smooth="yes"/>
      <point x="211" y="-86"/>
      <point x="173" y="-45"/>
      <point x="170" y="15" type="curve"/>
      <point x="20" y="-19" type="line"/>
      <point x="23" y="-130"/>
      <point x="133" y="-212"/>
    </contour>
    <contour>
      <point x="420" y="88" type="line"/>
      <point x="468" y="120"/>
      <point x="492" y="160"/>
      <point x="492" y="216" type="curve" smooth="yes"/>
      <point x="492" y="408"/>
      <point x="182" y="376"/>
      <point x="182" y="485" type="curve" smooth="yes"/>
      <point x="182" y="519"/>
      <point x="214" y="542"/>
      <point x="256" y="542" type="curve" smooth="yes"/>
      <point x="304" y="542"/>
      <point x="341" y="510"/>
      <point x="344" y="462" type="curve"/>
      <point x="484" y="496" type="line"/>
      <point x="477" y="592"/>
      <point x="374" y="662"/>
      <point x="252" y="662" type="curve" smooth="yes"/>
      <point x="128" y="662"/>
      <point x="50" y="592"/>
      <point x="50" y="496" type="curve" smooth="yes"/>
      <point x="50" y="305"/>
      <point x="360" y="333"/>
      <point x="360" y="220" type="curve" smooth="yes"/>
      <point x="360" y="181"/>
      <point x="326" y="152"/>
      <point x="280" y="152" type="curve"/>
    </contour>
  </outline>
</glyph>
<glyph name="copyright" format="2">
  <advance width="760"/>
  <unicode hex="00A9"/>
  <outline>
    <contour>
      <point x="380" y="-56" type="curve" smooth="yes"/>
      <point x="584" y="-56"/>
      <point x="732" y="96"/>
      <point x="732" y="305" type="curve" smooth="yes"/>
      <point x="732" y="514"/>
      <point x="584" y="666"/>
      <point x="380" y="666" type="curve" smooth="yes"/>
      <point x="176" y="666"/>
      <point x="28" y="514"/>
      <point x="28" y="305" type="curve" smooth="yes"/>
      <point x="28" y="96"/>
      <point x="176" y="-56"/>
    </contour>
    <contour>
      <point x="380" y="42" type="curve" smooth="yes"/>
      <point x="235" y="42"/>
      <point x="132" y="151"/>
      <point x="132" y="306" type="curve" smooth="yes"/>
      <point x="132" y="461"/>
      <point x="235" y="570"/>
      <point x="380" y="570" type="curve" smooth="yes"/>
      <point x="525" y="570"/>
      <point x="628" y="461"/>
      <point x="628" y="306" type="curve" smooth="yes"/>
      <point x="628" y="151"/>
      <point x="525" y="42"/>
    </contour>
    <contour>
      <point x="385" y="92" type="curve" smooth="yes"/>
      <point x="480" y="92"/>
      <point x="558" y="149"/>
      <point x="577" y="242" type="curve"/>
      <point x="455" y="276" type="line"/>
      <point x="451" y="241"/>
      <point x="422" y="216"/>
      <point x="387" y="216" type="curve" smooth="yes"/>
      <point x="344" y="216"/>
      <point x="313" y="255"/>
      <point x="313" y="308" type="curve" smooth="yes"/>
      <point x="313" y="358"/>
      <point x="343" y="394"/>
      <point x="385" y="394" type="curve" smooth="yes"/>
      <point x="417" y="394"/>
      <point x="446" y="371"/>
      <point x="453" y="340" type="curve"/>
      <point x="571" y="374" type="line"/>
      <point x="550" y="461"/>
      <point x="475" y="516"/>
      <point x="383" y="516" type="curve" smooth="yes"/>
      <point x="265" y="516"/>
      <point x="183" y="427"/>
      <point x="183" y="304" type="curve" smooth="yes"/>
      <point x="183" y="181"/>
      <point x="266" y="92"/>
    </contour>
  </outline>
</glyph>
<glyph name="ordfeminine" format="2">
  <advance width="328"/>
  <unicode hex="00AA"/>
  <outline>
    <contour>
      <point x="120" y="334" type="curve" smooth="yes"/>
      <point x="175" y="334"/>
      <point x="221" y="371"/>
      <point x="224" y="428" type="curve"/>
      <point x="204" y="472" type="line"/>
      <point x="204" y="438"/>
      <point x="186" y="416"/>
      <point x="158" y="416" type="curve" smooth="yes"/>
      <point x="140" y="416"/>
      <point x="128" y="426"/>
      <point x="128" y="441" type="curve" smooth="yes"/>
      <point x="128" y="453"/>
      <point x="136" y="463"/>
      <point x="148" y="466" type="curve" smooth="yes"/>
      <point x="204" y="478" type="line"/>
      <point x="204" y="393" type="line"/>
      <point x="232" y="342" type="line"/>
      <point x="300" y="342" type="line"/>
      <point x="300" y="532" type="line" smooth="yes"/>
      <point x="300" y="603"/>
      <point x="245" y="654"/>
      <point x="168" y="654" type="curve" smooth="yes"/>
      <point x="106" y="654"/>
      <point x="51" y="617"/>
      <point x="36" y="566" type="curve"/>
      <point x="140" y="536" type="line"/>
      <point x="142" y="557"/>
      <point x="156" y="572"/>
      <point x="174" y="572" type="curve" smooth="yes"/>
      <point x="191" y="572"/>
      <point x="204" y="559"/>
      <point x="204" y="540" type="curve" smooth="yes"/>
      <point x="204" y="535"/>
      <point x="201" y="530"/>
      <point x="193" y="528" type="curve" smooth="yes"/>
      <point x="96" y="508" type="line" smooth="yes"/>
      <point x="56" y="500"/>
      <point x="24" y="465"/>
      <point x="24" y="420" type="curve" smooth="yes"/>
      <point x="24" y="372"/>
      <point x="62" y="334"/>
    </contour>
  </outline>
</glyph>
<glyph name="logicalnot" format="2">
  <advance width="600"/>
  <unicode hex="00AC"/>
  <outline>
    <contour>
      <point x="80" y="259" type="line"/>
      <point x="508" y="259" type="line"/>
      <point x="508" y="397" type="line"/>
      <point x="80" y="397" type="line"/>
    </contour>
    <contour>
      <point x="368" y="103" type="line"/>
      <point x="508" y="103" type="line"/>
      <point x="508" y="279" type="line"/>
      <point x="368" y="279" type="line"/>
    </contour>
  </outline>
</glyph>
<glyph name="registered" format="2">
  <advance width="760"/>
  <unicode hex="00AE"/>
  <outline>
    <contour>
      <point x="380" y="-56" type="curve" smooth="yes"/>
      <point x="584" y="-56"/>
      <point x="732" y="96"/>
      <point x="732" y="305" type="curve" smooth="yes"/>
      <point x="732" y="514"/>
      <point x="584" y="666"/>
      <point x="380" y="666" type="curve" smooth="yes"/>
      <point x="176" y="666"/>
      <point x="28" y="514"/>
      <point x="28" y="305" type="curve" smooth="yes"/>
      <point x="28" y="96"/>
      <point x="176" y="-56"/>
    </contour>
    <contour>
      <point x="236" y="121" type="line"/>
      <point x="336" y="121" type="line"/>
      <point x="336" y="491" type="line"/>
      <point x="236" y="491" type="line"/>
    </contour>
    <contour>
      <point x="430" y="121" type="line"/>
      <point x="540" y="121" type="line"/>
      <point x="474" y="286" type="line"/>
      <point x="388" y="272" type="line"/>
    </contour>
    <contour>
      <point x="380" y="38" type="curve" smooth="yes"/>
      <point x="236" y="38"/>
      <point x="132" y="151"/>
      <point x="132" y="306" type="curve" smooth="yes"/>
      <point x="132" y="461"/>
      <point x="236" y="574"/>
      <point x="380" y="574" type="curve" smooth="yes"/>
      <point x="524" y="574"/>
      <point x="628" y="461"/>
      <point x="628" y="306" type="curve" smooth="yes"/>
      <point x="628" y="151"/>
      <point x="524" y="38"/>
    </contour>
    <contour>
      <point x="316" y="251" type="line"/>
      <point x="418" y="251" type="line" smooth="yes"/>
      <point x="488" y="251"/>
      <point x="538" y="300"/>
      <point x="538" y="370" type="curve" smooth="yes"/>
      <point x="538" y="441"/>
      <point x="490" y="491"/>
      <point x="422" y="491" type="curve" smooth="yes"/>
      <point x="316" y="491" type="line"/>
      <point x="316" y="395" type="line"/>
      <point x="408" y="395" type="line" smooth="yes"/>
      <point x="422" y="395"/>
      <point x="432" y="382"/>
      <point x="432" y="364" type="curve" smooth="yes"/>
      <point x="432" y="346"/>
      <point x="422" y="333"/>
      <point x="408" y="333" type="curve" smooth="yes"/>
      <point x="316" y="333" type="line"/>
    </contour>
  </outline>
</glyph>
<glyph name="degree" format="2">
  <advance width="356"/>
  <unicode hex="00B0"/>
  <outline>
    <contour>
      <point x="178" y="334" type="curve" smooth="yes"/>
      <point x="269" y="334"/>
      <point x="334" y="401"/>
      <point x="334" y="494" type="curve" smooth="yes"/>
      <point x="334" y="587"/>
      <point x="269" y="654"/>
      <point x="178" y="654" type="curve" smooth="yes"/>
      <point x="87" y="654"/>
      <point x="22" y="587"/>
      <point x="22" y="494" type="curve" smooth="yes"/>
      <point x="22" y="401"/>
      <point x="87" y="334"/>
    </contour>
    <contour>
      <point x="178" y="437" type="curve" smooth="yes"/>
      <point x="147" y="437"/>
      <point x="124" y="461"/>
      <point x="124" y="495" type="curve" smooth="yes"/>
      <point x="124" y="529"/>
      <point x="147" y="553"/>
      <point x="178" y="553" type="curve" smooth="yes"/>
      <point x="209" y="553"/>
      <point x="232" y="529"/>
      <point x="232" y="495" type="curve" smooth="yes"/>
      <point x="232" y="461"/>
      <point x="209" y="437"/>
    </contour>
  </outline>
</glyph>
<glyph name="plusminus" format="2">
  <advance width="600"/>
  <unicode hex="00B1"/>
  <outline>
    <contour>
      <point x="92" y="74" type="line"/>
      <point x="508" y="74" type="line"/>
      <point x="508" y="214" type="line"/>
      <point x="92" y="214" type="line"/>
    </contour>
    <contour>
      <point x="94" y="328" type="line"/>
      <point x="506" y="328" type="line"/>
      <point x="506" y="466" type="line"/>
      <point x="94" y="466" type="line"/>
    </contour>
    <contour>
      <point x="231" y="246" type="line"/>
      <point x="369" y="246" type="line"/>
      <point x="369" y="574" type="line"/>
      <point x="231" y="574" type="line"/>
    </contour>
  </outline>
</glyph>
<glyph name="twosuperior" format="2">
  <advance width="280"/>
  <unicode hex="00B2"/>
  <outline>
    <contour>
      <point x="24" y="346" type="line"/>
      <point x="258" y="346" type="line"/>
      <point x="258" y="432" type="line"/>
      <point x="136" y="432" type="line"/>
      <point x="152" y="480"/>
      <point x="260" y="484"/>
      <point x="260" y="568" type="curve" smooth="yes"/>
      <point x="260" y="625"/>
      <point x="210" y="662"/>
      <point x="146" y="662" type="curve" smooth="yes"/>
      <point x="78" y="662"/>
      <point x="24" y="616"/>
      <point x="20" y="548" type="curve"/>
      <point x="110" y="544" type="line"/>
      <point x="110" y="565"/>
      <point x="123" y="580"/>
      <point x="140" y="580" type="curve" smooth="yes"/>
      <point x="155" y="580"/>
      <point x="166" y="568"/>
      <point x="166" y="552" type="curve" smooth="yes"/>
      <point x="166" y="492"/>
      <point x="24" y="476"/>
      <point x="24" y="366" type="curve" smooth="yes"/>
    </contour>
  </outline>
</glyph>
<glyph name="threesuperior" format="2">
  <advance width="288"/>
  <unicode hex="00B3"/>
  <outline>
    <contour>
      <point x="146" y="334" type="curve" smooth="yes"/>
      <point x="217" y="334"/>
      <point x="268" y="378"/>
      <point x="268" y="440" type="curve" smooth="yes"/>
      <point x="268" y="486"/>
      <point x="238" y="520"/>
      <point x="198" y="528" type="curve"/>
      <point x="250" y="564" type="line"/>
      <point x="250" y="650" type="line"/>
      <point x="38" y="650" type="line"/>
      <point x="38" y="570" type="line"/>
      <point x="182" y="570" type="line"/>
      <point x="118" y="524" type="line"/>
      <point x="136" y="494" type="line"/>
      <point x="164" y="496"/>
      <point x="182" y="481"/>
      <point x="182" y="456" type="curve" smooth="yes"/>
      <point x="182" y="433"/>
      <point x="167" y="418"/>
      <point x="144" y="418" type="curve" smooth="yes"/>
      <point x="119" y="418"/>
      <point x="102" y="435"/>
      <point x="102" y="460" type="curve"/>
      <point x="18" y="444" type="line"/>
      <point x="18" y="380"/>
      <point x="71" y="334"/>
    </contour>
  </outline>
</glyph>
<glyph name="micro" format="2">
  <advance width="554"/>
  <unicode hex="00B5"/>
  <outline>
    <contour>
      <point x="48" y="-200" type="line"/>
      <point x="188" y="-200" type="line"/>
      <point x="188" y="500" type="line"/>
      <point x="48" y="500" type="line"/>
    </contour>
    <contour>
      <point x="264" y="-12" type="curve" smooth="yes"/>
      <point x="324" y="-12"/>
      <point x="372" y="28"/>
      <point x="380" y="92" type="curve"/>
      <point x="366" y="240" type="line"/>
      <point x="366" y="174"/>
      <point x="326" y="126"/>
      <point x="272" y="126" type="curve" smooth="yes"/>
      <point x="223" y="126"/>
      <point x="188" y="166"/>
      <point x="188" y="224" type="curve"/>
      <point x="156" y="100" type="line"/>
      <point x="156" y="32"/>
      <point x="200" y="-12"/>
    </contour>
    <contour>
      <point x="398" y="0" type="line"/>
      <point x="508" y="0" type="line"/>
      <point x="506" y="100" type="line"/>
      <point x="506" y="500" type="line"/>
      <point x="366" y="500" type="line"/>
      <point x="366" y="84" type="line"/>
      <point x="370" y="84" type="line"/>
    </contour>
  </outline>
</glyph>
<glyph name="paragraph" format="2">
  <advance width="568"/>
  <unicode hex="00B6"/>
  <outline>
    <contour>
      <point x="238" y="-200" type="line"/>
      <point x="330" y="-200" type="line"/>
      <point x="330" y="650" type="line"/>
      <point x="226" y="650" type="line" smooth="yes"/>
      <point x="103" y="650"/>
      <point x="14" y="562"/>
      <point x="14" y="440" type="curve" smooth="yes"/>
      <point x="14" y="319"/>
      <point x="108" y="232"/>
      <point x="238" y="232" type="curve" smooth="yes"/>
      <point x="258" y="232" type="line"/>
      <point x="238" y="252" type="line"/>
    </contour>
    <contour>
      <point x="378" y="-200" type="line"/>
      <point x="518" y="-200" type="line"/>
      <point x="518" y="650" type="line"/>
      <point x="378" y="650" type="line"/>
    </contour>
  </outline>
</glyph>
<glyph name="onesuperior" format="2">
  <advance width="200"/>
  <unicode hex="00B9"/>
  <outline>
    <contour>
      <point x="72" y="338" type="line"/>
      <point x="164" y="338" type="line"/>
      <point x="164" y="650" type="line"/>
      <point x="76" y="650" type="line"/>
      <point x="76" y="636" type="line" smooth="yes"/>
      <point x="76" y="613"/>
      <point x="60" y="596"/>
      <point x="38" y="596" type="curve" smooth="yes"/>
      <point x="8" y="596" type="line"/>
      <point x="8" y="512" type="line"/>
      <point x="72" y="512" type="line"/>
    </contour>
  </outline>
</glyph>
<glyph name="questiondown" format="2">
  <advance width="484"/>
  <unicode hex="00BF"/>
  <outline>
    <contour>
      <point x="236" y="-212" type="curve" smooth="yes"/>
      <point x="368" y="-212"/>
      <point x="467" y="-120"/>
      <point x="476" y="8" type="curve"/>
      <point x="318" y="24" type="line"/>
      <point x="318" y="-32"/>
      <point x="290" y="-68"/>
      <point x="244" y="-68" type="curve" smooth="yes"/>
      <point x="200" y="-68"/>
      <point x="172" y="-38"/>
      <point x="172" y="8" type="curve" smooth="yes"/>
      <point x="172" y="116"/>
      <point x="318" y="124"/>
      <point x="322" y="284" type="curve"/>
      <point x="215" y="284" type="line"/>
      <point x="187" y="152"/>
      <point x="16" y="152"/>
      <point x="16" y="-16" type="curve" smooth="yes"/>
      <point x="16" y="-130"/>
      <point x="108" y="-212"/>
    </contour>
    <component base="period" xOffset="140" yOffset="340"/>
  </outline>
</glyph>
<glyph name="AE" format="2">
  <advance width="932"/>
  <unicode hex="00C6"/>
  <outline>
    <contour>
      <point x="2" y="0" type="line"/>
      <point x="166" y="0" type="line"/>
      <point x="436" y="650" type="line"/>
      <point x="292" y="650" type="line"/>
    </contour>
    <contour>
      <point x="176" y="152" type="line"/>
      <point x="460" y="152" type="line"/>
      <point x="460" y="256" type="line"/>
      <point x="176" y="256" type="line"/>
    </contour>
    <contour>
      <point x="568" y="0" type="line"/>
      <point x="904" y="0" type="line"/>
      <point x="904" y="136" type="line"/>
      <point x="568" y="136" type="line"/>
    </contour>
    <contour>
      <point x="440" y="0" type="line"/>
      <point x="588" y="0" type="line"/>
      <point x="588" y="650" type="line"/>
      <point x="440" y="650" type="line"/>
    </contour>
    <contour>
      <point x="568" y="281" type="line"/>
      <point x="844" y="281" type="line"/>
      <point x="844" y="383" type="line"/>
      <point x="568" y="383" type="line"/>
    </contour>
    <contour>
      <point x="336" y="518" type="line"/>
      <point x="896" y="518" type="line"/>
      <point x="896" y="650" type="line"/>
      <point x="336" y="650" type="line"/>
    </contour>
  </outline>
</glyph>
<glyph name="Idieresis" format="2">
  <advance width="260"/>
  <unicode hex="00CF"/>
  <outline>
    <contour>
      <point x="222" y="692" type="curve" smooth="yes"/>
      <point x="268" y="692"/>
      <point x="300" y="724"/>
      <point x="300" y="770" type="curve" smooth="yes"/>
      <point x="300" y="816"/>
      <point x="268" y="848"/>
      <point x="222" y="848" type="curve" smooth="yes"/>
      <point x="176" y="848"/>
      <point x="144" y="816"/>
      <point x="144" y="770" type="curve" smooth="yes"/>
      <point x="144" y="724"/>
      <point x="176" y="692"/>
    </contour>
    <contour>
      <point x="38" y="692" type="curve" smooth="yes"/>
      <point x="84" y="692"/>
      <point x="116" y="724"/>
      <point x="116" y="770" type="curve" smooth="yes"/>
      <point x="116" y="816"/>
      <point x="84" y="848"/>
      <point x="38" y="848" type="curve" smooth="yes"/>
      <point x="-8" y="848"/>
      <point x="-40" y="816"/>
      <point x="-40" y="770" type="curve" smooth="yes"/>
      <point x="-40" y="724"/>
      <point x="-8" y="692"/>
    </contour>
    <component base="I" xOffset="6"/>
  </outline>
</glyph>
<glyph name="Eth" format="2">
  <advance width="660"/>
  <unicode hex="00D0"/>
  <outline>
    <contour>
      <point x="4" y="276" type="line"/>
      <point x="358" y="276" type="line"/>
      <point x="358" y="380" type="line"/>
      <point x="4" y="380" type="line"/>
    </contour>
    <component base="D" xOffset="10"/>
  </outline>
</glyph>
<glyph name="multiply" format="2">
  <advance width="600"/>
  <unicode hex="00D7"/>
  <outline>
    <contour>
      <point x="188" y="112" type="line"/>
      <point x="300" y="224" type="line"/>
      <point x="410" y="112" type="line"/>
      <point x="508" y="208" type="line"/>
      <point x="395" y="320" type="line"/>
      <point x="506" y="432" type="line"/>
      <point x="412" y="528" type="line"/>
      <point x="300" y="416" type="line"/>
      <point x="188" y="528" type="line"/>
      <point x="94" y="432" type="line"/>
      <point x="205" y="320" type="line"/>
      <point x="92" y="208" type="line"/>
    </contour>
  </outline>
</glyph>
<glyph name="Oslash" format="2">
  <advance width="704"/>
  <unicode hex="00D8"/>
  <outline>
    <contour>
      <point x="136" y="-32" type="line"/>
      <point x="652" y="616" type="line"/>
      <point x="570" y="684" type="line"/>
      <point x="52" y="36" type="line"/>
    </contour>
    <component base="O"/>
  </outline>
</glyph>
<glyph name="Thorn" format="2">
  <advance width="596"/>
  <unicode hex="00DE"/>
  <outline>
    <contour>
      <point x="178" y="119" type="line"/>
      <point x="350" y="119" type="line" smooth="yes"/>
      <point x="479" y="119"/>
      <point x="572" y="208"/>
      <point x="572" y="332" type="curve" smooth="yes"/>
      <point x="572" y="456"/>
      <point x="482" y="545"/>
      <point x="358" y="545" type="curve" smooth="yes"/>
      <point x="178" y="545" type="line"/>
      <point x="178" y="413" type="line"/>
      <point x="334" y="413" type="line" smooth="yes"/>
      <point x="382" y="413"/>
      <point x="416" y="380"/>
      <point x="416" y="334" type="curve" smooth="yes"/>
      <point x="416" y="288"/>
      <point x="382" y="255"/>
      <point x="334" y="255" type="curve" smooth="yes"/>
      <point x="178" y="255" type="line"/>
    </contour>
    <contour>
      <point x="50" y="0" type="line"/>
      <point x="198" y="0" type="line"/>
      <point x="198" y="650" type="line"/>
      <point x="50" y="650" type="line"/>
    </contour>
  </outline>
</glyph>
<glyph name="germandbls" format="2">
  <advance width="576"/>
  <unicode hex="00DF"/>
  <outline>
    <contour>
      <point x="50" y="-200" type="line"/>
      <point x="190" y="-200" type="line"/>
      <point x="190" y="456" type="line" smooth="yes"/>
      <point x="190" y="517"/>
      <point x="231" y="560"/>
      <point x="288" y="560" type="curve" smooth="yes"/>
      <point x="336" y="560"/>
      <point x="370" y="527"/>
      <point x="370" y="482" type="curve" smooth="yes"/>
      <point x="370" y="437"/>
      <point x="337" y="404"/>
      <point x="290" y="404" type="curve" smooth="yes"/>
      <point x="274" y="404" type="line"/>
      <point x="274" y="308" type="line"/>
      <point x="292" y="308" type="line" smooth="yes"/>
      <point x="351" y="308"/>
      <point x="394" y="270"/>
      <point x="394" y="216" type="curve" smooth="yes"/>
      <point x="394" y="144"/>
      <point x="318" y="115"/>
      <point x="242" y="131" type="curve"/>
      <point x="236" y="-6" type="line"/>
      <point x="388" y="-34"/>
      <point x="546" y="32"/>
      <point x="546" y="184" type="curve" smooth="yes"/>
      <point x="546" y="272"/>
      <point x="489" y="346"/>
      <point x="410" y="362" type="curve"/>
      <point x="470" y="382"/>
      <point x="518" y="440"/>
      <point x="518" y="516" type="curve" smooth="yes"/>
      <point x="518" y="620"/>
      <point x="426" y="692"/>
      <point x="296" y="692" type="curve" smooth="yes"/>
      <point x="148" y="692"/>
      <point x="50" y="596"/>
      <point x="50" y="456" type="curve" smooth="yes"/>
    </contour>
  </outline>
</glyph>
<glyph name="ae" format="2">
  <advance width="782"/>
  <unicode hex="00E6"/>
  <outline>
    <contour>
      <point x="540" y="-14" type="curve" smooth="yes"/>
      <point x="631" y="-14"/>
      <point x="720" y="46"/>
      <point x="752" y="130" type="curve"/>
      <point x="616" y="174" type="line"/>
      <point x="608" y="139"/>
      <point x="579" y="116"/>
      <point x="542" y="116" type="curve" smooth="yes"/>
      <point x="485" y="116"/>
      <point x="446" y="172"/>
      <point x="446" y="252" type="curve" smooth="yes"/>
      <point x="446" y="327"/>
      <point x="482" y="380"/>
      <point x="534" y="380" type="curve" smooth="yes"/>
      <point x="574" y="380"/>
      <point x="608" y="348"/>
      <point x="614" y="292" type="curve"/>
      <point x="424" y="292" type="line"/>
      <point x="424" y="220" type="line"/>
      <point x="754" y="220" type="line"/>
      <point x="772" y="382"/>
      <point x="676" y="510"/>
      <point x="536" y="510" type="curve" smooth="yes"/>
      <point x="456" y="510"/>
      <point x="384" y="465"/>
      <point x="356" y="401" type="curve"/>
      <point x="356" y="95" type="line"/>
      <point x="384" y="31"/>
      <point x="460" y="-14"/>
    </contour>
    <contour>
      <point x="194" y="-12" type="curve" smooth="yes"/>
      <point x="304" y="-12"/>
      <point x="390" y="48"/>
      <point x="406" y="132" type="curve"/>
      <point x="304" y="200" type="line"/>
      <point x="304" y="152"/>
      <point x="270" y="118"/>
      <point x="222" y="118" type="curve" smooth="yes"/>
      <point x="187" y="118"/>
      <point x="162" y="137"/>
      <point x="162" y="164" type="curve" smooth="yes"/>
      <point x="162" y="188"/>
      <point x="182" y="208"/>
      <point x="210" y="212" type="curve" smooth="yes"/>
      <point x="304" y="224" type="line"/>
      <point x="304" y="316" type="line"/>
      <point x="304" y="302"/>
      <point x="299" y="295"/>
      <point x="280" y="292" type="curve" smooth="yes"/>
      <point x="162" y="276" type="line" smooth="yes"/>
      <point x="83" y="265"/>
      <point x="26" y="205"/>
      <point x="26" y="132" type="curve" smooth="yes"/>
      <point x="26" y="48"/>
      <point x="97" y="-12"/>
    </contour>
    <contour>
      <point x="304" y="100" type="line"/>
      <point x="444" y="100" type="line"/>
      <point x="444" y="324" type="line" smooth="yes"/>
      <point x="444" y="433"/>
      <point x="357" y="512"/>
      <point x="232" y="512" type="curve" smooth="yes"/>
      <point x="135" y="512"/>
      <point x="53" y="452"/>
      <point x="30" y="368" type="curve"/>
      <point x="166" y="320" type="line"/>
      <point x="170" y="357"/>
      <point x="198" y="384"/>
      <point x="238" y="384" type="curve" smooth="yes"/>
      <point x="279" y="384"/>
      <point x="304" y="359"/>
      <point x="304" y="324" type="curve" smooth="yes"/>
    </contour>
  </outline>
</glyph>
<glyph name="idieresis" format="2">
  <advance width="244"/>
  <unicode hex="00EF"/>
  <outline>
    <contour>
      <point x="216" y="550" type="curve" smooth="yes"/>
      <point x="263" y="550"/>
      <point x="296" y="585"/>
      <point x="296" y="632" type="curve" smooth="yes"/>
      <point x="296" y="679"/>
      <point x="263" y="714"/>
      <point x="216" y="714" type="curve" smooth="yes"/>
      <point x="169" y="714"/>
      <point x="136" y="679"/>
      <point x="136" y="632" type="curve" smooth="yes"/>
      <point x="136" y="585"/>
      <point x="169" y="550"/>
    </contour>
    <contour>
      <point x="28" y="550" type="curve" smooth="yes"/>
      <point x="75" y="550"/>
      <point x="108" y="585"/>
      <point x="108" y="632" type="curve" smooth="yes"/>
      <point x="108" y="679"/>
      <point x="75" y="714"/>
      <point x="28" y="714" type="curve" smooth="yes"/>
      <point x="-19" y="714"/>
      <point x="-52" y="679"/>
      <point x="-52" y="632" type="curve" smooth="yes"/>
      <point x="-52" y="585"/>
      <point x="-19" y="550"/>
    </contour>
    <component base="idotless"/>
  </outline>
</glyph>
<glyph name="eth" format="2">
  <advance width="536"/>
  <unicode hex="00F0"/>
  <outline>
    <contour>
      <point x="256" y="-12" type="curve" smooth="yes"/>
      <point x="408" y="-12"/>
      <point x="508" y="97"/>
      <point x="508" y="272" type="curve" smooth="yes"/>
      <point x="508" y="456"/>
      <point x="392" y="624"/>
      <point x="212" y="700" type="curve"/>
      <point x="148" y="580" type="line"/>
      <point x="260" y="538"/>
      <point x="340" y="476"/>
      <point x="364" y="368" type="curve"/>
      <point x="380" y="376" type="line"/>
      <point x="352" y="416"/>
      <point x="300" y="440"/>
      <point x="240" y="440" type="curve" smooth="yes"/>
      <point x="116" y="440"/>
      <point x="22" y="349"/>
      <point x="22" y="220" type="curve" smooth="yes"/>
      <point x="22" y="84"/>
      <point x="120" y="-12"/>
    </contour>
    <contour>
      <point x="266" y="128" type="curve" smooth="yes"/>
      <point x="211" y="128"/>
      <point x="172" y="176"/>
      <point x="172" y="244" type="curve" smooth="yes"/>
      <point x="172" y="312"/>
      <point x="211" y="360"/>
      <point x="266" y="360" type="curve" smooth="yes"/>
      <point x="321" y="360"/>
      <point x="360" y="312"/>
      <point x="360" y="244" type="curve" smooth="yes"/>
      <point x="360" y="176"/>
      <point x="321" y="128"/>
    </contour>
    <contour>
      <point x="212" y="452" type="line"/>
      <point x="456" y="656" type="line"/>
      <point x="396" y="728" type="line"/>
      <point x="152" y="524" type="line"/>
    </contour>
  </outline>
</glyph>
<glyph name="divide" format="2">
  <advance width="600"/>
  <unicode hex="00F7"/>
  <outline>
    <contour>
      <point x="80" y="264" type="line"/>
      <point x="520" y="264" type="line"/>
      <point x="520" y="376" type="line"/>
      <point x="80" y="376" type="line"/>
    </contour>
    <component base="period" xOffset="182" yOffset="60"/>
    <component base="period" xOffset="182" yOffset="420"/>
  </outline>
</glyph>
<glyph name="oslash" format="2">
  <advance width="564"/>
  <unicode hex="00F8"/>
  <outline>
    <contour>
      <point x="106" y="-36" type="line"/>
      <point x="532" y="480" type="line"/>
      <point x="454" y="544" type="line"/>
      <point x="30" y="28" type="line"/>
    </contour>
    <component base="o" xOffset="2"/>
  </outline>
</glyph>
<glyph name="thorn" format="2">
  <advance width="578"/>
  <unicode hex="00FE"/>
  <outline>
    <contour>
      <point x="342" y="-12" type="curve" smooth="yes"/>
      <point x="463" y="-12"/>
      <point x="552" y="101"/>
      <point x="552" y="254" type="curve" smooth="yes"/>
      <point x="552" y="403"/>
      <point x="460" y="512"/>
      <point x="334" y="512" type="curve" smooth="yes"/>
      <point x="213" y="512"/>
      <point x="130" y="409"/>
      <point x="130" y="258" type="curve" smooth="yes"/>
      <point x="130" y="102"/>
      <point x="220" y="-12"/>
    </contour>
    <contour>
      <point x="50" y="-200" type="line"/>
      <point x="190" y="-200" type="line"/>
      <point x="190" y="97" type="line"/>
      <point x="170" y="251" type="line"/>
      <point x="190" y="403" type="line"/>
      <point x="190" y="680" type="line"/>
      <point x="50" y="680" type="line"/>
    </contour>
    <contour>
      <point x="300" y="124" type="curve" smooth="yes"/>
      <point x="236" y="124"/>
      <point x="190" y="177"/>
      <point x="190" y="251" type="curve" smooth="yes"/>
      <point x="190" y="325"/>
      <point x="236" y="378"/>
      <point x="300" y="378" type="curve" smooth="yes"/>
      <point x="364" y="378"/>
      <point x="410" y="325"/>
      <point x="410" y="251" type="curve" smooth="yes"/>
      <point x="410" y="177"/>
      <point x="364" y="124"/>
    </contour>
  </outline>
</glyph>
<glyph name="dcroat" format="2">
  <advance width="592"/>
  <unicode hex="0111"/>
  <outline>
    <contour>
      <point x="162" y="550" type="line"/>
      <point x="586" y="550" type="line"/>
      <point x="586" y="646" type="line"/>
      <point x="162" y="646" type="line"/>
    </contour>
    <component base="d"/>
  </outline>
</glyph>
<glyph name="eogonek" format="2">
  <advance width="542"/>
  <unicode hex="0119"/>
  <outline>
    <contour>
      <point x="356" y="-208" type="curve" smooth="yes"/>
      <point x="384" y="-208"/>
      <point x="405" y="-205"/>
      <point x="430" y="-200" type="curve"/>
      <point x="420" y="-123" type="line"/>
      <point x="414" y="-124"/>
      <point x="407" y="-124"/>
      <point x="404" y="-124" type="curve" smooth="yes"/>
      <point x="381" y="-124"/>
      <point x="364" y="-106"/>
      <point x="364" y="-80" type="curve" smooth="yes"/>
      <point x="364" y="-48"/>
      <point x="386" y="-8"/>
      <point x="450" y="48" type="curve"/>
      <point x="340" y="0" type="line"/>
      <point x="272" y="-28"/>
      <point x="236" y="-72"/>
      <point x="236" y="-120" type="curve" smooth="yes"/>
      <point x="236" y="-172"/>
      <point x="280" y="-208"/>
    </contour>
    <component base="e"/>
  </outline>
</glyph>
<glyph name="Hbar" format="2">
  <advance width="672"/>
  <unicode hex="0126"/>
  <outline>
    <contour>
      <point x="4" y="488" type="line"/>
      <point x="668" y="488" type="line"/>
      <point x="668" y="590" type="line"/>
      <point x="4" y="590" type="line"/>
    </contour>
    <component base="H" xOffset="10"/>
  </outline>
</glyph>
<glyph name="hbar" format="2">
  <advance width="564"/>
  <unicode hex="0127"/>
  <outline>
    <contour>
      <point x="6" y="550" type="line"/>
      <point x="422" y="550" type="line"/>
      <point x="422" y="646" type="line"/>
      <point x="6" y="646" type="line"/>
    </contour>
    <component base="h" xOffset="4"/>
  </outline>
</glyph>
<glyph name="idotless" format="2">
  <advance width="236"/>
  <unicode hex="0131"/>
  <anchor x="188" y="0" name="ogonek"/>
  <anchor x="118" y="500" name="top"/>
  <outline>
    <contour>
      <point x="48" y="500" type="line"/>
      <point x="48" y="0" type="line"/>
      <point x="188" y="0" type="line"/>
      <point x="188" y="500" type="line"/>
    </contour>
  </outline>
</glyph>
<glyph name="Lslash" format="2">
  <advance width="510"/>
  <unicode hex="0141"/>
  <outline>
    <contour>
      <point x="4" y="264" type="line"/>
      <point x="368" y="360" type="line"/>
      <point x="368" y="468" type="line"/>
      <point x="4" y="372" type="line"/>
    </contour>
    <component base="L" xOffset="4"/>
  </outline>
</glyph>
<glyph name="lslash" format="2">
  <advance width="296"/>
  <unicode hex="0142"/>
  <outline>
    <contour>
      <point x="8" y="266" type="line"/>
      <point x="288" y="340" type="line"/>
      <point x="288" y="448" type="line"/>
      <point x="8" y="372" type="line"/>
    </contour>
    <component base="l" xOffset="28"/>
  </outline>
</glyph>
<glyph name="OE" format="2">
  <advance width="1004"/>
  <unicode hex="0152"/>
  <outline>
    <contour>
      <point x="332" y="-12" type="curve" smooth="yes"/>
      <point x="404" y="-12"/>
      <point x="480" y="16"/>
      <point x="512" y="54" type="curve"/>
      <point x="512" y="596" type="line"/>
      <point x="480" y="634"/>
      <point x="404" y="662"/>
      <point x="332" y="662" type="curve" smooth="yes"/>
      <point x="156" y="662"/>
      <point x="28" y="517"/>
      <point x="28" y="325" type="curve" smooth="yes"/>
      <point x="28" y="133"/>
      <point x="156" y="-12"/>
    </contour>
    <contour>
      <point x="348" y="132" type="curve" smooth="yes"/>
      <point x="251" y="132"/>
      <point x="184" y="215"/>
      <point x="184" y="327" type="curve" smooth="yes"/>
      <point x="184" y="441"/>
      <point x="251" y="522"/>
      <point x="348" y="522" type="curve" smooth="yes"/>
      <point x="445" y="522"/>
      <point x="512" y="441"/>
      <point x="512" y="327" type="curve" smooth="yes"/>
      <point x="512" y="215"/>
      <point x="445" y="132"/>
    </contour>
    <contour>
      <point x="640" y="0" type="line"/>
      <point x="976" y="0" type="line"/>
      <point x="976" y="136" type="line"/>
      <point x="640" y="136" type="line"/>
    </contour>
    <contour>
      <point x="512" y="0" type="line"/>
      <point x="660" y="0" type="line"/>
      <point x="660" y="650" type="line"/>
      <point x="512" y="650" type="line"/>
    </contour>
    <contour>
      <point x="640" y="281" type="line"/>
      <point x="916" y="281" type="line"/>
      <point x="916" y="383" type="line"/>
      <point x="640" y="383" type="line"/>
    </contour>
    <contour>
      <point x="640" y="518" type="line"/>
      <point x="968" y="518" type="line"/>
      <point x="968" y="650" type="line"/>
      <point x="640" y="650" type="line"/>
    </contour>
  </outline>
</glyph>
<glyph name="oe" format="2">
  <advance width="828"/>
  <unicode hex="0153"/>
  <outline>
    <contour>
      <point x="260" y="-12" type="curve" smooth="yes"/>
      <point x="396" y="-12"/>
      <point x="494" y="98"/>
      <point x="494" y="250" type="curve" smooth="yes"/>
      <point x="494" y="402"/>
      <point x="396" y="512"/>
      <point x="260" y="512" type="curve" smooth="yes"/>
      <point x="124" y="512"/>
      <point x="26" y="402"/>
      <point x="26" y="250" type="curve" smooth="yes"/>
      <point x="26" y="98"/>
      <point x="124" y="-12"/>
    </contour>
    <contour>
      <point x="260" y="122" type="curve" smooth="yes"/>
      <point x="204" y="122"/>
      <point x="168" y="173"/>
      <point x="168" y="251" type="curve" smooth="yes"/>
      <point x="168" y="329"/>
      <point x="204" y="380"/>
      <point x="260" y="380" type="curve" smooth="yes"/>
      <point x="316" y="380"/>
      <point x="352" y="329"/>
      <point x="352" y="251" type="curve" smooth="yes"/>
      <point x="352" y="173"/>
      <point x="316" y="122"/>
    </contour>
    <contour>
      <point x="586" y="-14" type="curve" smooth="yes"/>
      <point x="677" y="-14"/>
      <point x="766" y="46"/>
      <point x="798" y="130" type="curve"/>
      <point x="662" y="174" type="line"/>
      <point x="654" y="138"/>
      <point x="622" y="116"/>
      <point x="590" y="116" type="curve" smooth="yes"/>
      <point x="538" y="116"/>
      <point x="492" y="167"/>
      <point x="492" y="248" type="curve" smooth="yes"/>
      <point x="492" y="328"/>
      <point x="528" y="380"/>
      <point x="580" y="380" type="curve" smooth="yes"/>
      <point x="620" y="380"/>
      <point x="654" y="348"/>
      <point x="660" y="292" type="curve"/>
      <point x="470" y="292" type="line"/>
      <point x="470" y="220" type="line"/>
      <point x="800" y="220" type="line"/>
      <point x="816" y="356"/>
      <point x="742" y="510"/>
      <point x="582" y="510" type="curve" smooth="yes"/>
      <point x="502" y="510"/>
      <point x="430" y="465"/>
      <point x="402" y="401" type="curve"/>
      <point x="402" y="95" type="line"/>
      <point x="430" y="31"/>
      <point x="506" y="-14"/>
    </contour>
  </outline>
</glyph>
<glyph name="Uogonek" format="2">
  <advance width="628"/>
  <unicode hex="0172"/>
  <outline>
    <contour>
      <point x="404" y="-208" type="curve" smooth="yes"/>
      <point x="432" y="-208"/>
      <point x="453" y="-205"/>
      <point x="478" y="-200" type="curve"/>
      <point x="468" y="-123" type="line"/>
      <point x="462" y="-124"/>
      <point x="455" y="-124"/>
      <point x="452" y="-124" type="curve" smooth="yes"/>
      <point x="426" y="-124"/>
      <point x="412" y="-111"/>
      <point x="412" y="-88" type="curve" smooth="yes"/>
      <point x="412" y="-37"/>
      <point x="462" y="14"/>
      <point x="516" y="72" type="curve"/>
      <point x="388" y="0" type="line"/>
      <point x="320" y="-28"/>
      <point x="284" y="-72"/>
      <point x="284" y="-120" type="curve" smooth="yes"/>
      <point x="284" y="-172"/>
      <point x="328" y="-208"/>
    </contour>
    <component base="U"/>
  </outline>
</glyph>
<glyph name="Schwa" format="2">
  <advance width="672"/>
  <unicode hex="018F"/>
  <outline>
    <contour>
      <point x="336" y="-12" type="curve" smooth="yes"/>
      <point x="520" y="-12"/>
      <point x="644" y="128"/>
      <point x="644" y="324" type="curve" smooth="yes"/>
      <point x="644" y="520"/>
      <point x="520" y="662"/>
      <point x="336" y="662" type="curve" smooth="yes"/>
      <point x="200" y="662"/>
      <point x="88" y="588"/>
      <point x="52" y="488" type="curve"/>
      <point x="206" y="428" type="line"/>
      <point x="222" y="488"/>
      <point x="274" y="522"/>
      <point x="334" y="522" type="curve" smooth="yes"/>
      <point x="426" y="522"/>
      <point x="488" y="444"/>
      <point x="488" y="324" type="curve" smooth="yes"/>
      <point x="488" y="208"/>
      <point x="432" y="132"/>
      <point x="340" y="132" type="curve" smooth="yes"/>
      <point x="262" y="132"/>
      <point x="206" y="187"/>
      <point x="196" y="272" type="curve"/>
      <point x="508" y="272" type="line"/>
      <point x="508" y="384" type="line"/>
      <point x="30" y="384" type="line"/>
      <point x="10" y="153"/>
      <point x="136" y="-12"/>
    </contour>
  </outline>
</glyph>
<glyph name="florin" format="2">
  <advance width="424"/>
  <unicode hex="0192"/>
  <outline>
    <contour>
      <point x="44" y="-200" type="line"/>
      <point x="184" y="-200" type="line"/>
      <point x="259" y="500" type="line" smooth="yes"/>
      <point x="265" y="556"/>
      <point x="332" y="576"/>
      <point x="376" y="540" type="curve"/>
      <point x="428" y="662" type="line"/>
      <point x="316" y="730"/>
      <point x="138" y="684"/>
      <point x="120" y="512" type="curve" smooth="yes"/>
    </contour>
    <contour>
      <point x="12" y="261" type="line"/>
      <point x="372" y="261" type="line"/>
      <point x="372" y="389" type="line"/>
      <point x="12" y="389" type="line"/>
    </contour>
  </outline>
</glyph>
<glyph name="jdotless" format="2">
  <advance width="248"/>
  <unicode hex="0237"/>
  <anchor x="130" y="500" name="top"/>
  <outline>
    <contour>
      <point x="48" y="-224" type="line"/>
      <point x="136" y="-212"/>
      <point x="200" y="-144"/>
      <point x="200" y="-56" type="curve" smooth="yes"/>
      <point x="200" y="500" type="line"/>
      <point x="60" y="500" type="line"/>
      <point x="60" y="-12" type="line" smooth="yes"/>
      <point x="60" y="-53"/>
      <point x="30" y="-88"/>
      <point x="-12" y="-96" type="curve"/>
    </contour>
  </outline>
</glyph>
<glyph name="schwa" format="2">
  <advance width="540"/>
  <unicode hex="0259"/>
  <outline>
    <contour>
      <point x="268" y="-12" type="curve" smooth="yes"/>
      <point x="413" y="-12"/>
      <point x="514" y="96"/>
      <point x="514" y="248" type="curve" smooth="yes"/>
      <point x="514" y="402"/>
      <point x="410" y="512"/>
      <point x="264" y="512" type="curve" smooth="yes"/>
      <point x="156" y="512"/>
      <point x="66" y="452"/>
      <point x="42" y="372" type="curve"/>
      <point x="176" y="324" type="line"/>
      <point x="187" y="359"/>
      <point x="224" y="382"/>
      <point x="266" y="382" type="curve" smooth="yes"/>
      <point x="330" y="382"/>
      <point x="374" y="328"/>
      <point x="374" y="246" type="curve" smooth="yes"/>
      <point x="374" y="170"/>
      <point x="334" y="120"/>
      <point x="272" y="120" type="curve" smooth="yes"/>
      <point x="220" y="120"/>
      <point x="182" y="156"/>
      <point x="176" y="208" type="curve"/>
      <point x="394" y="208" type="line"/>
      <point x="394" y="288" type="line"/>
      <point x="28" y="288" type="line"/>
      <point x="12" y="112"/>
      <point x="112" y="-12"/>
    </contour>
  </outline>
</glyph>
<glyph name="gravecomb" format="2">
  <advance width="600"/>
  <unicode hex="0300"/>
  <anchor x="300" y="500" name="_top"/>
  <outline>
    <contour>
      <point x="240" y="552" type="line"/>
      <point x="368" y="558" type="line"/>
      <point x="320" y="716" type="line"/>
      <point x="140" y="710" type="line"/>
    </contour>
  </outline>
</glyph>
<glyph name="acutecomb" format="2">
  <advance width="600"/>
  <unicode hex="0301"/>
  <anchor x="300" y="500" name="_top"/>
  <outline>
    <contour>
      <point x="232" y="558" type="line"/>
      <point x="358" y="554" type="line"/>
      <point x="460" y="710" type="line"/>
      <point x="282" y="710" type="line"/>
    </contour>
  </outline>
</glyph>
<glyph name="circumflexcomb" format="2">
  <advance width="600"/>
  <unicode hex="0302"/>
  <anchor x="300" y="500" name="_top"/>
  <outline>
    <contour>
      <point x="116" y="556" type="line"/>
      <point x="260" y="552" type="line"/>
      <point x="300" y="640" type="line"/>
      <point x="342" y="552" type="line"/>
      <point x="484" y="556" type="line"/>
      <point x="372" y="708" type="line"/>
      <point x="228" y="708" type="line"/>
    </contour>
  </outline>
</glyph>
<glyph name="tildecomb" format="2">
  <advance width="600"/>
  <unicode hex="0303"/>
  <anchor x="300" y="500" name="_top"/>
  <outline>
    <contour>
      <point x="374" y="550" type="curve" smooth="yes"/>
      <point x="426" y="550"/>
      <point x="466" y="598"/>
      <point x="470" y="676" type="curve" smooth="yes"/>
      <point x="471" y="696" type="line"/>
      <point x="364" y="706" type="line"/>
      <point x="364" y="706" type="line" smooth="yes"/>
      <point x="364" y="682"/>
      <point x="349" y="664"/>
      <point x="328" y="664" type="curve" smooth="yes"/>
      <point x="294" y="664"/>
      <point x="274" y="710"/>
      <point x="226" y="710" type="curve" smooth="yes"/>
      <point x="174" y="710"/>
      <point x="134" y="662"/>
      <point x="130" y="584" type="curve" smooth="yes"/>
      <point x="129" y="564" type="line"/>
      <point x="236" y="554" type="line"/>
      <point x="236" y="554" type="line" smooth="yes"/>
      <point x="236" y="578"/>
      <point x="251" y="596"/>
      <point x="272" y="596" type="curve" smooth="yes"/>
      <point x="306" y="596"/>
      <point x="326" y="550"/>
    </contour>
  </outline>
</glyph>
<glyph name="macroncomb" format="2">
  <advance width="600"/>
  <unicode hex="0304"/>
  <anchor x="300" y="500" name="_top"/>
  <outline>
    <contour>
      <point x="150" y="568" type="line"/>
      <point x="450" y="568" type="line"/>
      <point x="450" y="680" type="line"/>
      <point x="150" y="680" type="line"/>
    </contour>
  </outline>
</glyph>
<glyph name="brevecomb" format="2">
  <advance width="600"/>
  <unicode hex="0306"/>
  <anchor x="300" y="500" name="_top"/>
  <outline>
    <contour>
      <point x="300" y="548" type="curve" smooth="yes"/>
      <point x="389" y="548"/>
      <point x="454" y="607"/>
      <point x="454" y="688" type="curve" smooth="yes"/>
      <point x="454" y="712" type="line"/>
      <point x="331" y="704" type="line"/>
      <point x="332" y="692"/>
      <point x="332" y="684"/>
      <point x="332" y="674" type="curve" smooth="yes"/>
      <point x="332" y="644"/>
      <point x="319" y="624"/>
      <point x="300" y="624" type="curve" smooth="yes"/>
      <point x="281" y="624"/>
      <point x="268" y="644"/>
      <point x="268" y="674" type="curve" smooth="yes"/>
      <point x="268" y="684"/>
      <point x="268" y="692"/>
      <point x="269" y="704" type="curve"/>
      <point x="146" y="712" type="line"/>
      <point x="146" y="688" type="line" smooth="yes"/>
      <point x="146" y="607"/>
      <point x="211" y="548"/>
    </contour>
  </outline>
</glyph>
<glyph name="dotaccentcomb" format="2">
  <advance width="600"/>
  <unicode hex="0307"/>
  <anchor x="300" y="500" name="_top"/>
  <outline>
    <contour>
      <point x="300" y="548" type="curve" smooth="yes"/>
      <point x="348" y="548"/>
      <point x="382" y="583"/>
      <point x="382" y="632" type="curve" smooth="yes"/>
      <point x="382" y="681"/>
      <point x="348" y="716"/>
      <point x="300" y="716" type="curve" smooth="yes"/>
      <point x="252" y="716"/>
      <point x="218" y="681"/>
      <point x="218" y="632" type="curve" smooth="yes"/>
      <point x="218" y="583"/>
      <point x="252" y="548"/>
    </contour>
  </outline>
</glyph>
<glyph name="dieresiscomb" format="2">
  <advance width="600"/>
  <unicode hex="0308"/>
  <anchor x="300" y="500" name="_top"/>
  <outline>
    <contour>
      <point x="398" y="552" type="curve" smooth="yes"/>
      <point x="444" y="552"/>
      <point x="476" y="584"/>
      <point x="476" y="630" type="curve" smooth="yes"/>
      <point x="476" y="676"/>
      <point x="444" y="708"/>
      <point x="398" y="708" type="curve" smooth="yes"/>
      <point x="352" y="708"/>
      <point x="320" y="676"/>
      <point x="320" y="630" type="curve" smooth="yes"/>
      <point x="320" y="584"/>
      <point x="352" y="552"/>
    </contour>
    <contour>
      <point x="202" y="552" type="curve" smooth="yes"/>
      <point x="248" y="552"/>
      <point x="280" y="584"/>
      <point x="280" y="630" type="curve" smooth="yes"/>
      <point x="280" y="676"/>
      <point x="248" y="708"/>
      <point x="202" y="708" type="curve" smooth="yes"/>
      <point x="156" y="708"/>
      <point x="124" y="676"/>
      <point x="124" y="630" type="curve" smooth="yes"/>
      <point x="124" y="584"/>
      <point x="156" y="552"/>
    </contour>
  </outline>
</glyph>
<glyph name="ringcomb" format="2">
  <advance width="600"/>
  <unicode hex="030A"/>
  <anchor x="300" y="500" name="_top"/>
  <outline>
    <contour>
      <point x="300" y="544" type="curve" smooth="yes"/>
      <point x="367" y="544"/>
      <point x="416" y="592"/>
      <point x="416" y="659" type="curve" smooth="yes"/>
      <point x="416" y="726"/>
      <point x="367" y="774"/>
      <point x="300" y="774" type="curve" smooth="yes"/>
      <point x="233" y="774"/>
      <point x="184" y="726"/>
      <point x="184" y="659" type="curve" smooth="yes"/>
      <point x="184" y="592"/>
      <point x="233" y="544"/>
    </contour>
    <contour>
      <point x="300" y="623" type="curve" smooth="yes"/>
      <point x="280" y="623"/>
      <point x="266" y="638"/>
      <point x="266" y="659" type="curve" smooth="yes"/>
      <point x="266" y="680"/>
      <point x="280" y="696"/>
      <point x="300" y="696" type="curve" smooth="yes"/>
      <point x="320" y="696"/>
      <point x="334" y="680"/>
      <point x="334" y="659" type="curve" smooth="yes"/>
      <point x="334" y="638"/>
      <point x="320" y="623"/>
    </contour>
  </outline>
</glyph>
<glyph name="hungarumlautcomb" format="2">
  <advance width="600"/>
  <unicode hex="030B"/>
  <anchor x="300" y="500" name="_top"/>
  <outline>
    <contour>
      <point x="316" y="558" type="line"/>
      <point x="436" y="554" type="line"/>
      <point x="536" y="710" type="line"/>
      <point x="378" y="710" type="line"/>
    </contour>
    <contour>
      <point x="152" y="558" type="line"/>
      <point x="264" y="554" type="line"/>
      <point x="356" y="710" type="line"/>
      <point x="204" y="710" type="line"/>
    </contour>
  </outline>
</glyph>
<glyph name="caroncomb" format="2">
  <advance width="600"/>
  <unicode hex="030C"/>
  <anchor x="300" y="500" name="_top"/>
  <outline>
    <contour>
      <point x="222" y="558" type="line"/>
      <point x="378" y="558" type="line"/>
      <point x="480" y="710" type="line"/>
      <point x="344" y="714" type="line"/>
      <point x="301" y="622" type="line"/>
      <point x="258" y="714" type="line"/>
      <point x="120" y="710" type="line"/>
    </contour>
  </outline>
</glyph>
<glyph name="commaaccentcomb" format="2">
  <advance width="600"/>
  <unicode hex="0326"/>
  <anchor x="300" y="0" name="_bottom"/>
  <outline>
    <contour>
      <point x="228" y="-247" type="line"/>
      <point x="308" y="-263"/>
      <point x="380" y="-212"/>
      <point x="380" y="-124" type="curve" smooth="yes"/>
      <point x="380" y="-66"/>
      <point x="347" y="-28"/>
      <point x="300" y="-28" type="curve" smooth="yes"/>
      <point x="257" y="-28"/>
      <point x="228" y="-58"/>
      <point x="228" y="-100" type="curve" smooth="yes"/>
      <point x="228" y="-139"/>
      <point x="257" y="-169"/>
      <point x="294" y="-171" type="curve"/>
      <point x="284" y="-187"/>
      <point x="262" y="-194"/>
      <point x="230" y="-188" type="curve"/>
    </contour>
  </outline>
</glyph>
<glyph name="cedillacomb" format="2">
  <advance width="600"/>
  <unicode hex="0327"/>
  <anchor x="300" y="0" name="_bottom"/>
  <outline>
    <contour>
      <point x="340" y="-256"/>
      <point x="420" y="-224"/>
      <point x="420" y="-144" type="curve" smooth="yes"/>
      <point x="420" y="-87"/>
      <point x="378" y="-42"/>
      <point x="320" y="-38" type="curve"/>
      <point x="334" y="28" type="line"/>
      <point x="268" y="28" type="line"/>
      <point x="248" y="-104" type="line"/>
      <point x="276" y="-106" type="line" smooth="yes"/>
      <point x="295" y="-107"/>
      <point x="304" y="-116"/>
      <point x="304" y="-128" type="curve" smooth="yes"/>
      <point x="304" y="-148"/>
      <point x="282" y="-156"/>
      <point x="230" y="-148" type="curve"/>
      <point x="224" y="-236" type="line"/>
    </contour>
  </outline>
</glyph>
<glyph name="ogonekcomb" format="2">
  <advance width="600"/>
  <unicode hex="0328"/>
  <anchor x="364" y="0" name="_ogonek"/>
  <outline>
    <contour>
      <point x="300" y="-208" type="curve" smooth="yes"/>
      <point x="328" y="-208"/>
      <point x="349" y="-205"/>
      <point x="374" y="-200" type="curve"/>
      <point x="364" y="-123" type="line"/>
      <point x="358" y="-124"/>
      <point x="351" y="-124"/>
      <point x="348" y="-124" type="curve" smooth="yes"/>
      <point x="322" y="-124"/>
      <point x="308" y="-111"/>
      <point x="308" y="-88" type="curve" smooth="yes"/>
      <point x="308" y="-64"/>
      <point x="328" y="-32"/>
      <point x="364" y="0" type="curve"/>
      <point x="284" y="0" type="line"/>
      <point x="216" y="-28"/>
      <point x="180" y="-72"/>
      <point x="180" y="-120" type="curve" smooth="yes"/>
      <point x="180" y="-172"/>
      <point x="224" y="-208"/>
    </contour>
  </outline>
</glyph>
<glyph name="Ze-cy" format="2">
  <advance width="560"/>
  <unicode hex="0417"/>
  <outline>
    <contour>
      <point x="288" y="-12" type="curve" smooth="yes"/>
      <point x="428" y="-12"/>
      <point x="534" y="68"/>
      <point x="534" y="180" type="curve" smooth="yes"/>
      <point x="534" y="272"/>
      <point x="461" y="339"/>
      <point x="351" y="348" type="curve"/>
      <point x="351" y="336" type="line"/>
      <point x="452" y="344"/>
      <point x="516" y="406"/>
      <point x="516" y="490" type="curve" smooth="yes"/>
      <point x="516" y="590"/>
      <point x="424" y="662"/>
      <point x="296" y="662" type="curve" smooth="yes"/>
      <point x="165" y="662"/>
      <point x="64" y="584"/>
      <point x="52" y="476" type="curve"/>
      <point x="208" y="448" type="line"/>
      <point x="210" y="503"/>
      <point x="244" y="538"/>
      <point x="294" y="538" type="curve" smooth="yes"/>
      <point x="340" y="538"/>
      <point x="370" y="507"/>
      <point x="370" y="460" type="curve" smooth="yes"/>
      <point x="370" y="410"/>
      <point x="336" y="378"/>
      <point x="284" y="378" type="curve" smooth="yes"/>
      <point x="250" y="378" type="line"/>
      <point x="250" y="294" type="line"/>
      <point x="284" y="294" type="line" smooth="yes"/>
      <point x="340" y="294"/>
      <point x="376" y="259"/>
      <point x="376" y="206" type="curve" smooth="yes"/>
      <point x="376" y="154"/>
      <point x="342" y="120"/>
      <point x="290" y="120" type="curve" smooth="yes"/>
      <point x="235" y="120"/>
      <point x="200" y="159"/>
      <point x="200" y="220" type="curve"/>
      <point x="32" y="196" type="line"/>
      <point x="36" y="76"/>
      <point x="140" y="-12"/>
    </contour>
  </outline>
</glyph>
<glyph name="ze-cy" format="2">
  <advance width="492"/>
  <unicode hex="0437"/>
  <outline>
    <contour>
      <point x="260" y="-12" type="curve" smooth="yes"/>
      <point x="376" y="-12"/>
      <point x="466" y="42"/>
      <point x="466" y="134" type="curve" smooth="yes"/>
      <point x="466" y="204"/>
      <point x="411" y="257"/>
      <point x="336" y="262" type="curve"/>
      <point x="336" y="250" type="line"/>
      <point x="401" y="259"/>
      <point x="450" y="306"/>
      <point x="450" y="368" type="curve" smooth="yes"/>
      <point x="450" y="452"/>
      <point x="367" y="512"/>
      <point x="252" y="512" type="curve" smooth="yes"/>
      <point x="134" y="512"/>
      <point x="42" y="444"/>
      <point x="32" y="348" type="curve"/>
      <point x="180" y="316" type="line"/>
      <point x="180" y="362"/>
      <point x="208" y="392"/>
      <point x="252" y="392" type="curve" smooth="yes"/>
      <point x="288" y="392"/>
      <point x="314" y="372"/>
      <point x="314" y="342" type="curve" smooth="yes"/>
      <point x="314" y="313"/>
      <point x="288" y="294"/>
      <point x="252" y="294" type="curve" smooth="yes"/>
      <point x="220" y="294" type="line"/>
      <point x="220" y="216" type="line"/>
      <point x="248" y="216" type="line" smooth="yes"/>
      <point x="296" y="216"/>
      <point x="322" y="195"/>
      <point x="322" y="164" type="curve" smooth="yes"/>
      <point x="322" y="133"/>
      <point x="296" y="112"/>
      <point x="256" y="112" type="curve" smooth="yes"/>
      <point x="210" y="112"/>
      <point x="178" y="142"/>
      <point x="176" y="188" type="curve"/>
      <point x="20" y="160" type="line"/>
      <point x="32" y="64"/>
      <point x="128" y="-12"/>
    </contour>
  </outline>
</glyph>
<glyph name="Germandbls" format="2">
  <advance width="676"/>
  <unicode hex="1E9E"/>
  <outline>
    <contour>
      <point x="460" y="-12" type="curve" smooth="yes"/>
      <point x="581" y="-12"/>
      <point x="668" y="65"/>
      <point x="668" y="172" type="curve" smooth="yes"/>
      <point x="668" y="360"/>
      <point x="408" y="352"/>
      <point x="408" y="452" type="curve" smooth="yes"/>
      <point x="408" y="512"/>
      <point x="500" y="536"/>
      <point x="572" y="496" type="curve"/>
      <point x="612" y="616" type="line"/>
      <point x="556" y="646"/>
      <point x="476" y="662"/>
      <point x="396" y="662" type="curve" smooth="yes"/>
      <point x="196" y="662"/>
      <point x="52" y="556"/>
      <point x="52" y="400" type="curve" smooth="yes"/>
      <point x="52" y="0" type="line"/>
      <point x="200" y="0" type="line"/>
      <point x="200" y="384" type="line" smooth="yes"/>
      <point x="200" y="493"/>
      <point x="277" y="564"/>
      <point x="396" y="564" type="curve"/>
      <point x="332" y="548"/>
      <point x="288" y="500"/>
      <point x="288" y="440" type="curve" smooth="yes"/>
      <point x="288" y="296"/>
      <point x="528" y="292"/>
      <point x="528" y="180" type="curve" smooth="yes"/>
      <point x="528" y="142"/>
      <point x="500" y="116"/>
      <point x="464" y="116" type="curve" smooth="yes"/>
      <point x="420" y="116"/>
      <point x="388" y="152"/>
      <point x="386" y="208" type="curve"/>
      <point x="236" y="180" type="line"/>
      <point x="240" y="64"/>
      <point x="329" y="-12"/>
    </contour>
  </outline>
</glyph>
<glyph name="endash" format="2">
  <advance width="536"/>
  <unicode hex="2013"/>
  <outline>
    <contour>
      <point x="20" y="200" type="line"/>
      <point x="516" y="200" type="line"/>
      <point x="516" y="312" type="line"/>
      <point x="20" y="312" type="line"/>
    </contour>
  </outline>
</glyph>
<glyph name="emdash" format="2">
  <advance width="844"/>
  <unicode hex="2014"/>
  <outline>
    <contour>
      <point x="12" y="200" type="line"/>
      <point x="832" y="200" type="line"/>
      <point x="832" y="312" type="line"/>
      <point x="12" y="312" type="line"/>
    </contour>
  </outline>
</glyph>
<glyph name="dagger" format="2">
  <advance width="408"/>
  <unicode hex="2020"/>
  <outline>
    <contour>
      <point x="132" y="0" type="line"/>
      <point x="276" y="0" type="line"/>
      <point x="276" y="650" type="line"/>
      <point x="132" y="650" type="line"/>
    </contour>
    <contour>
      <point x="52" y="386" type="line"/>
      <point x="356" y="386" type="line"/>
      <point x="356" y="518" type="line"/>
      <point x="52" y="518" type="line"/>
    </contour>
  </outline>
</glyph>
<glyph name="daggerdbl" format="2">
  <advance width="408"/>
  <unicode hex="2021"/>
  <outline>
    <contour>
      <point x="132" y="0" type="line"/>
      <point x="276" y="0" type="line"/>
      <point x="276" y="650" type="line"/>
      <point x="132" y="650" type="line"/>
    </contour>
    <contour>
      <point x="52" y="148" type="line"/>
      <point x="356" y="148" type="line"/>
      <point x="356" y="281" type="line"/>
      <point x="52" y="281" type="line"/>
    </contour>
    <contour>
      <point x="52" y="386" type="line"/>
      <point x="356" y="386" type="line"/>
      <point x="356" y="518" type="line"/>
      <point x="52" y="518" type="line"/>
    </contour>
  </outline>
</glyph>
<glyph name="minute" format="2">
  <advance width="236"/>
  <unicode hex="2032"/>
  <outline>
    <contour>
      <point x="20" y="426" type="line"/>
      <point x="156" y="426" type="line"/>
      <point x="216" y="650" type="line"/>
      <point x="52" y="650" type="line"/>
    </contour>
  </outline>
</glyph>
<glyph name="guilsinglleft" format="2">
  <advance width="348"/>
  <unicode hex="2039"/>
  <outline>
    <contour>
      <point x="208" y="20" type="line"/>
      <point x="304" y="112" type="line"/>
      <point x="178" y="250" type="line"/>
      <point x="304" y="392" type="line"/>
      <point x="208" y="484" type="line"/>
      <point x="20" y="251" type="line"/>
    </contour>
  </outline>
</glyph>
<glyph name="interrobang" format="2">
  <advance width="656"/>
  <unicode hex="203D"/>
  <outline>
    <contour>
      <point x="360" y="200" type="line"/>
      <point x="388" y="260"/>
      <point x="428" y="279"/>
      <point x="500" y="300" type="curve" smooth="yes"/>
      <point x="568" y="320"/>
      <point x="652" y="384"/>
      <point x="652" y="496" type="curve" smooth="yes"/>
      <point x="652" y="611"/>
      <point x="567" y="692"/>
      <point x="440" y="692" type="curve" smooth="yes"/>
      <point x="328" y="692"/>
      <point x="240" y="628"/>
      <point x="216" y="532" type="curve"/>
      <point x="356" y="480" type="line"/>
      <point x="363" y="525"/>
      <point x="396" y="556"/>
      <point x="436" y="556" type="curve" smooth="yes"/>
      <point x="473" y="556"/>
      <point x="500" y="528"/>
      <point x="500" y="488" type="curve" smooth="yes"/>
      <point x="500" y="436"/>
      <point x="456" y="404"/>
      <point x="416" y="388" type="curve" smooth="yes"/>
      <point x="344" y="360"/>
      <point x="304" y="332"/>
      <point x="268" y="240" type="curve"/>
    </contour>
    <contour>
      <point x="132" y="216" type="line"/>
      <point x="232" y="240" type="line"/>
      <point x="148" y="696" type="line"/>
      <point x="0" y="660" type="line"/>
    </contour>
    <component base="period" xOffset="120"/>
  </outline>
</glyph>
<glyph name="fraction" format="2">
  <advance width="760"/>
  <unicode hex="2044"/>
  <outline>
    <contour>
      <point x="180" y="-20" type="line"/>
      <point x="656" y="610" type="line"/>
      <point x="582" y="670" type="line"/>
      <point x="104" y="40" type="line"/>
    </contour>
  </outline>
</glyph>
<glyph name="zerosuperior" format="2">
  <advance width="340"/>
  <unicode hex="2070"/>
  <outline>
    <contour>
      <point x="170" y="332" type="curve" smooth="yes"/>
      <point x="256" y="332"/>
      <point x="316" y="399"/>
      <point x="316" y="494" type="curve" smooth="yes"/>
      <point x="316" y="589"/>
      <point x="256" y="656"/>
      <point x="170" y="656" type="curve" smooth="yes"/>
      <point x="84" y="656"/>
      <point x="24" y="589"/>
      <point x="24" y="494" type="curve" smooth="yes"/>
      <point x="24" y="399"/>
      <point x="84" y="332"/>
    </contour>
    <contour>
      <point x="170" y="414" type="curve" smooth="yes"/>
      <point x="138" y="414"/>
      <point x="116" y="448"/>
      <point x="116" y="495" type="curve" smooth="yes"/>
      <point x="116" y="542"/>
      <point x="138" y="576"/>
      <point x="170" y="576" type="curve" smooth="yes"/>
      <point x="202" y="576"/>
      <point x="224" y="542"/>
      <point x="224" y="495" type="curve" smooth="yes"/>
      <point x="224" y="448"/>
      <point x="202" y="414"/>
    </contour>
  </outline>
</glyph>
<glyph name="foursuperior" format="2">
  <advance width="292"/>
  <unicode hex="2074"/>
  <outline>
    <contour>
      <point x="14" y="390" type="line"/>
      <point x="280" y="390" type="line"/>
      <point x="280" y="474" type="line"/>
      <point x="96" y="474" type="line"/>
      <point x="134" y="508"/>
      <point x="150" y="552"/>
      <point x="150" y="642" type="curve" smooth="yes"/>
      <point x="150" y="650" type="line"/>
      <point x="59" y="650" type="line"/>
      <point x="59" y="638" type="line" smooth="yes"/>
      <point x="59" y="559"/>
      <point x="45" y="513"/>
      <point x="14" y="482" type="curve"/>
    </contour>
    <contour>
      <point x="162" y="338" type="line"/>
      <point x="248" y="338" type="line"/>
      <point x="248" y="576" type="line"/>
      <point x="162" y="564" type="line"/>
    </contour>
  </outline>
</glyph>
<glyph name="euro" format="2">
  <advance width="706"/>
  <unicode hex="20AC"/>
  <outline>
    <contour>
      <point x="4" y="337" type="line"/>
      <point x="412" y="337" type="line"/>
      <point x="452" y="421" type="line"/>
      <point x="4" y="421" type="line"/>
    </contour>
    <contour>
      <point x="4" y="227" type="line"/>
      <point x="396" y="227" type="line"/>
      <point x="432" y="313" type="line"/>
      <point x="4" y="313" type="line"/>
    </contour>
    <component base="C" xOffset="44"/>
  </outline>
</glyph>
<glyph name="trademark" format="2">
  <advance width="682"/>
  <unicode hex="2122"/>
  <outline>
    <contour>
      <point x="308" y="338" type="line"/>
      <point x="404" y="338" type="line"/>
      <point x="404" y="540" type="line"/>
      <point x="455" y="339" type="line"/>
      <point x="505" y="339" type="line"/>
      <point x="554" y="540" type="line"/>
      <point x="554" y="338" type="line"/>
      <point x="650" y="338" type="line"/>
      <point x="650" y="650" type="line"/>
      <point x="530" y="650" type="line"/>
      <point x="481" y="436" type="line"/>
      <point x="430" y="650" type="line"/>
      <point x="308" y="650" type="line"/>
    </contour>
    <contour>
      <point x="92" y="338" type="line"/>
      <point x="188" y="338" type="line"/>
      <point x="188" y="650" type="line"/>
      <point x="92" y="650" type="line"/>
    </contour>
    <contour>
      <point x="4" y="558" type="line"/>
      <point x="276" y="558" type="line"/>
      <point x="276" y="650" type="line"/>
      <point x="4" y="650" type="line"/>
    </contour>
  </outline>
</glyph>
<glyph name="upArrow" format="2">
  <advance width="646"/>
  <unicode hex="2191"/>
  <outline>
    <contour>
      <point x="254" y="0" type="line"/>
      <point x="396" y="0" type="line"/>
      <point x="396" y="395" type="line"/>
      <point x="535" y="256" type="line"/>
      <point x="634" y="355" type="line"/>
      <point x="323" y="666" type="line"/>
      <point x="12" y="355" type="line"/>
      <point x="111" y="256" type="line"/>
      <point x="254" y="399" type="line"/>
    </contour>
  </outline>
</glyph>
<glyph name="rightArrow" format="2">
  <advance width="646"/>
  <unicode hex="2192"/>
  <outline>
    <contour>
      <point x="303" y="15" type="line"/>
      <point x="614" y="326" type="line"/>
      <point x="303" y="637" type="line"/>
      <point x="204" y="538" type="line"/>
      <point x="352" y="396" type="line"/>
      <point x="20" y="396" type="line"/>
      <point x="20" y="256" type="line"/>
      <point x="352" y="256" type="line"/>
      <point x="204" y="114" type="line"/>
    </contour>
  </outline>
</glyph>
<glyph name="northEastArrow" format="2">
  <advance width="646"/>
  <unicode hex="2197"/>
  <outline>
    <contour>
      <point x="130" y="33" type="line"/>
      <point x="438" y="339" type="line"/>
      <point x="438" y="143" type="line"/>
      <point x="578" y="143" type="line"/>
      <point x="578" y="577" type="line"/>
      <point x="148" y="577" type="line"/>
      <point x="148" y="441" type="line"/>
      <point x="336" y="441" type="line"/>
      <point x="28" y="135" type="line"/>
    </contour>
  </outline>
</glyph>
<glyph name="southEastArrow" format="2">
  <advance width="646"/>
  <unicode hex="2198"/>
  <outline>
    <contour>
      <point x="148" y="62" type="line"/>
      <point x="578" y="62" type="line"/>
      <point x="578" y="490" type="line"/>
      <point x="438" y="490" type="line"/>
      <point x="438" y="302" type="line"/>
      <point x="130" y="608" type="line"/>
      <point x="28" y="506" type="line"/>
      <point x="336" y="200" type="line"/>
      <point x="148" y="200" type="line"/>
    </contour>
  </outline>
</glyph>
<glyph name="minus" format="2">
  <advance width="600"/>
  <unicode hex="2212"/>
  <outline>
    <contour>
      <point x="80" y="250" type="line"/>
      <point x="520" y="250" type="line"/>
      <point x="520" y="390" type="line"/>
      <point x="80" y="390" type="line"/>
    </contour>
  </outline>
</glyph>
<glyph name="approxequal" format="2">
  <advance width="600"/>
  <unicode hex="2248"/>
  <outline>
    <contour>
      <point x="398" y="322" type="curve" smooth="yes"/>
      <point x="469" y="322"/>
      <point x="520" y="387"/>
      <point x="520" y="478" type="curve" smooth="yes"/>
      <point x="520" y="500" type="line"/>
      <point x="380" y="500" type="line"/>
      <point x="380" y="500" type="line"/>
      <point x="380" y="471"/>
      <point x="363" y="450"/>
      <point x="340" y="450" type="curve" smooth="yes"/>
      <point x="300" y="450"/>
      <point x="272" y="514"/>
      <point x="202" y="514" type="curve" smooth="yes"/>
      <point x="131" y="514"/>
      <point x="80" y="449"/>
      <point x="80" y="358" type="curve" smooth="yes"/>
      <point x="80" y="336" type="line"/>
      <point x="220" y="336" type="line"/>
      <point x="220" y="336" type="line"/>
      <point x="220" y="365"/>
      <point x="237" y="386"/>
      <point x="260" y="386" type="curve" smooth="yes"/>
      <point x="300" y="386"/>
      <point x="328" y="322"/>
    </contour>
    <contour>
      <point x="398" y="126" type="curve" smooth="yes"/>
      <point x="469" y="126"/>
      <point x="520" y="191"/>
      <point x="520" y="282" type="curve" smooth="yes"/>
      <point x="520" y="304" type="line"/>
      <point x="380" y="304" type="line"/>
      <point x="380" y="304" type="line"/>
      <point x="380" y="275"/>
      <point x="363" y="254"/>
      <point x="340" y="254" type="curve" smooth="yes"/>
      <point x="300" y="254"/>
      <point x="272" y="318"/>
      <point x="202" y="318" type="curve" smooth="yes"/>
      <point x="131" y="318"/>
      <point x="80" y="253"/>
      <point x="80" y="162" type="curve" smooth="yes"/>
      <point x="80" y="140" type="line"/>
      <point x="220" y="140" type="line"/>
      <point x="220" y="140" type="line"/>
      <point x="220" y="169"/>
      <point x="237" y="190"/>
      <point x="260" y="190" type="curve" smooth="yes"/>
      <point x="300" y="190"/>
      <point x="328" y="126"/>
    </contour>
  </outline>
</glyph>
<glyph name="notequal" format="2">
  <advance width="600"/>
  <unicode hex="2260"/>
  <outline>
    <contour>
      <point x="200" y="56" type="line"/>
      <point x="468" y="548" type="line"/>
      <point x="400" y="584" type="line"/>
      <point x="132" y="92" type="line"/>
    </contour>
    <component base="equal"/>
  </outline>
</glyph>
<glyph name="greaterequal" format="2">
  <advance width="600"/>
  <unicode hex="2265"/>
  <outline>
    <contour>
      <point x="100" y="74" type="line"/>
      <point x="508" y="74" type="line"/>
      <point x="508" y="206" type="line"/>
      <point x="100" y="206" type="line"/>
    </contour>
    <contour>
      <point x="128" y="216" type="line"/>
      <point x="508" y="312" type="line"/>
      <point x="508" y="440" type="line"/>
      <point x="132" y="586" type="line"/>
      <point x="104" y="444" type="line"/>
      <point x="364" y="388" type="line"/>
      <point x="108" y="348" type="line"/>
    </contour>
  </outline>
</glyph>
<glyph name="blackCircle" format="2">
  <advance width="722"/>
  <unicode hex="25CF"/>
  <outline>
    <contour>
      <point x="361" y="-16" type="curve" smooth="yes"/>
      <point x="554" y="-16"/>
      <point x="694" y="127"/>
      <point x="694" y="324" type="curve" smooth="yes"/>
      <point x="694" y="522"/>
      <point x="554" y="666"/>
      <point x="361" y="666" type="curve" smooth="yes"/>
      <point x="168" y="666"/>
      <point x="28" y="522"/>
      <point x="28" y="324" type="curve" smooth="yes"/>
      <point x="28" y="127"/>
      <point x="168" y="-16"/>
    </contour>
  </outline>
</glyph>
<glyph name="caroncomb.alt" format="2">
  <advance width="600"/>
  <anchor x="300" y="500" name="_topright"/>
  <outline>
    <contour>
      <point x="300" y="539" type="line"/>
      <point x="360" y="519"/>
      <point x="448" y="563"/>
      <point x="448" y="659" type="curve" smooth="yes"/>
      <point x="448" y="715"/>
      <point x="416" y="752"/>
      <point x="370" y="752" type="curve" smooth="yes"/>
      <point x="328" y="752"/>
      <point x="300" y="723"/>
      <point x="300" y="682" type="curve" smooth="yes"/>
      <point x="300" y="644"/>
      <point x="328" y="615"/>
      <point x="364" y="613" type="curve"/>
      <point x="352" y="597"/>
      <point x="334" y="592"/>
      <point x="302" y="596" type="curve"/>
    </contour>
  </outline>
</glyph>
